<svg viewBox="0 0 330 200" xmlns="http://www.w3.org/2000/svg"><g><g><g><g><g><line x1="55.625" y1="176" x2="50.625" y2="176" style="visibility: inherit;" fill="rgb(0, 0, 0)" stroke="rgb(204, 204, 204)" stroke-width="1px"></line><line x1="55.625" y1="162.46153846153848" x2="50.625" y2="162.46153846153848" style="visibility: inherit;" fill="rgb(0, 0, 0)" stroke="rgb(204, 204, 204)" stroke-width="1px"></line><line x1="55.625" y1="148.92307692307693" x2="50.625" y2="148.92307692307693" style="visibility: inherit;" fill="rgb(0, 0, 0)" stroke="rgb(204, 204, 204)" stroke-width="1px"></line><line x1="55.625" y1="135.3846153846154" x2="50.625" y2="135.3846153846154" style="visibility: inherit;" fill="rgb(0, 0, 0)" stroke="rgb(204, 204, 204)" stroke-width="1px"></line><line x1="55.625" y1="121.84615384615384" x2="50.625" y2="121.84615384615384" style="visibility: inherit;" fill="rgb(0, 0, 0)" stroke="rgb(204, 204, 204)" stroke-width="1px"></line><line x1="55.625" y1="108.30769230769232" x2="50.625" y2="108.30769230769232" style="visibility: inherit;" fill="rgb(0, 0, 0)" stroke="rgb(204, 204, 204)" stroke-width="1px"></line><line x1="55.625" y1="94.76923076923076" x2="50.625" y2="94.76923076923076" style="visibility: inherit;" fill="rgb(0, 0, 0)" stroke="rgb(204, 204, 204)" stroke-width="1px"></line><line x1="55.625" y1="81.23076923076924" x2="50.625" y2="81.23076923076924" style="visibility: inherit;" fill="rgb(0, 0, 0)" stroke="rgb(204, 204, 204)" stroke-width="1px"></line><line x1="55.625" y1="67.69230769230768" x2="50.625" y2="67.69230769230768" style="visibility: inherit;" fill="rgb(0, 0, 0)" stroke="rgb(204, 204, 204)" stroke-width="1px"></line><line x1="55.625" y1="54.15384615384616" x2="50.625" y2="54.15384615384616" style="visibility: inherit;" fill="rgb(0, 0, 0)" stroke="rgb(204, 204, 204)" stroke-width="1px"></line><line x1="55.625" y1="40.61538461538463" x2="50.625" y2="40.61538461538463" style="visibility: inherit;" fill="rgb(0, 0, 0)" stroke="rgb(204, 204, 204)" stroke-width="1px"></line><line x1="55.625" y1="27.07692307692308" x2="50.625" y2="27.07692307692308" style="visibility: inherit;" fill="rgb(0, 0, 0)" stroke="rgb(204, 204, 204)" stroke-width="1px"></line><line x1="55.625" y1="13.538461538461549" x2="50.625" y2="13.538461538461549" style="visibility: inherit;" fill="rgb(0, 0, 0)" stroke="rgb(204, 204, 204)" stroke-width="1px"></line><line x1="55.625" y1="0" x2="50.625" y2="0" style="visibility: inherit;" fill="rgb(0, 0, 0)" stroke="rgb(204, 204, 204)" stroke-width="1px"></line></g><g transform="translate(45.625, 0)"><text x="0" y="176" dx="0em" dy="0.3em" style="text-anchor: end; visibility: hidden; font-family: Roboto, sans-serif; font-size: 12px; font-weight: 200;" fill="rgb(255, 255, 255)" stroke="none" stroke-width="1px">-0.01</text><text x="0" y="162.46153846153848" dx="0em" dy="0.3em" style="text-anchor: end; visibility: inherit; font-family: Roboto, sans-serif; font-size: 12px; font-weight: 200;" fill="rgb(255, 255, 255)" stroke="none" stroke-width="1px">0</text><text x="0" y="148.92307692307693" dx="0em" dy="0.3em" style="text-anchor: end; visibility: hidden; font-family: Roboto, sans-serif; font-size: 12px; font-weight: 200;" fill="rgb(255, 255, 255)" stroke="none" stroke-width="1px">0.01</text><text x="0" y="135.3846153846154" dx="0em" dy="0.3em" style="text-anchor: end; visibility: inherit; font-family: Roboto, sans-serif; font-size: 12px; font-weight: 200;" fill="rgb(255, 255, 255)" stroke="none" stroke-width="1px">0.02</text><text x="0" y="121.84615384615384" dx="0em" dy="0.3em" style="text-anchor: end; visibility: hidden; font-family: Roboto, sans-serif; font-size: 12px; font-weight: 200;" fill="rgb(255, 255, 255)" stroke="none" stroke-width="1px">0.03</text><text x="0" y="108.30769230769232" dx="0em" dy="0.3em" style="text-anchor: end; visibility: inherit; font-family: Roboto, sans-serif; font-size: 12px; font-weight: 200;" fill="rgb(255, 255, 255)" stroke="none" stroke-width="1px">0.04</text><text x="0" y="94.76923076923076" dx="0em" dy="0.3em" style="text-anchor: end; visibility: hidden; font-family: Roboto, sans-serif; font-size: 12px; font-weight: 200;" fill="rgb(255, 255, 255)" stroke="none" stroke-width="1px">0.05</text><text x="0" y="81.23076923076924" dx="0em" dy="0.3em" style="text-anchor: end; visibility: inherit; font-family: Roboto, sans-serif; font-size: 12px; font-weight: 200;" fill="rgb(255, 255, 255)" stroke="none" stroke-width="1px">0.06</text><text x="0" y="67.69230769230768" dx="0em" dy="0.3em" style="text-anchor: end; visibility: hidden; font-family: Roboto, sans-serif; font-size: 12px; font-weight: 200;" fill="rgb(255, 255, 255)" stroke="none" stroke-width="1px">0.07</text><text x="0" y="54.15384615384616" dx="0em" dy="0.3em" style="text-anchor: end; visibility: inherit; font-family: Roboto, sans-serif; font-size: 12px; font-weight: 200;" fill="rgb(255, 255, 255)" stroke="none" stroke-width="1px">0.08</text><text x="0" y="40.61538461538463" dx="0em" dy="0.3em" style="text-anchor: end; visibility: hidden; font-family: Roboto, sans-serif; font-size: 12px; font-weight: 200;" fill="rgb(255, 255, 255)" stroke="none" stroke-width="1px">0.09</text><text x="0" y="27.07692307692308" dx="0em" dy="0.3em" style="text-anchor: end; visibility: inherit; font-family: Roboto, sans-serif; font-size: 12px; font-weight: 200;" fill="rgb(255, 255, 255)" stroke="none" stroke-width="1px">0.1</text><text x="0" y="13.538461538461549" dx="0em" dy="0.3em" style="text-anchor: end; visibility: hidden; font-family: Roboto, sans-serif; font-size: 12px; font-weight: 200;" fill="rgb(255, 255, 255)" stroke="none" stroke-width="1px">0.11</text><text x="0" y="0" dx="0em" dy="0.3em" style="text-anchor: end; visibility: hidden; font-family: Roboto, sans-serif; font-size: 12px; font-weight: 200;" fill="rgb(255, 255, 255)" stroke="none" stroke-width="1px">0.12</text></g><line x1="55.625" y1="0" x2="55.625" y2="176" fill="rgb(0, 0, 0)" stroke="rgb(204, 204, 204)" stroke-width="1px"></line></g></g><g transform="translate(55, 0)" clip-path="url(#clip_0)"><clipPath id="clip_0"><rect width="274" height="176"></rect></clipPath><g><g><g><line x1="0" y1="0" x2="0" y2="176" fill="rgb(0, 0, 0)" stroke="rgb(189, 189, 189)" stroke-width="1px" opacity="0.25"></line><line x1="27.4375" y1="0" x2="27.4375" y2="176" fill="rgb(0, 0, 0)" stroke="rgb(189, 189, 189)" stroke-width="1px" opacity="0.25"></line><line x1="54.875" y1="0" x2="54.875" y2="176" fill="rgb(0, 0, 0)" stroke="rgb(189, 189, 189)" stroke-width="1px" opacity="0.25"></line><line x1="82.3125" y1="0" x2="82.3125" y2="176" fill="rgb(0, 0, 0)" stroke="rgb(189, 189, 189)" stroke-width="1px" opacity="0.25"></line><line x1="109.75" y1="0" x2="109.75" y2="176" fill="rgb(0, 0, 0)" stroke="rgb(189, 189, 189)" stroke-width="1px" opacity="0.25"></line><line x1="137.1875" y1="0" x2="137.1875" y2="176" fill="rgb(0, 0, 0)" stroke="rgb(189, 189, 189)" stroke-width="1px" opacity="0.25"></line><line x1="164.625" y1="0" x2="164.625" y2="176" fill="rgb(0, 0, 0)" stroke="rgb(189, 189, 189)" stroke-width="1px" opacity="0.25"></line><line x1="192.0625" y1="0" x2="192.0625" y2="176" fill="rgb(0, 0, 0)" stroke="rgb(189, 189, 189)" stroke-width="1px" opacity="0.25"></line><line x1="219.5" y1="0" x2="219.5" y2="176" fill="rgb(0, 0, 0)" stroke="rgb(189, 189, 189)" stroke-width="1px" opacity="0.25"></line><line x1="246.9375" y1="0" x2="246.9375" y2="176" fill="rgb(0, 0, 0)" stroke="rgb(189, 189, 189)" stroke-width="1px" opacity="0.25"></line><line x1="274.375" y1="0" x2="274.375" y2="176" fill="rgb(0, 0, 0)" stroke="rgb(189, 189, 189)" stroke-width="1px" opacity="0.25"></line></g><g><line x1="0" y1="176" x2="274.375" y2="176" fill="rgb(0, 0, 0)" stroke="rgb(189, 189, 189)" stroke-width="1px" opacity="0.25"></line><line x1="0" y1="162.46153846153848" x2="274.375" y2="162.46153846153848" fill="rgb(0, 0, 0)" stroke="rgb(189, 189, 189)" stroke-width="1px" opacity="0.25"></line><line x1="0" y1="148.92307692307693" x2="274.375" y2="148.92307692307693" fill="rgb(0, 0, 0)" stroke="rgb(189, 189, 189)" stroke-width="1px" opacity="0.25"></line><line x1="0" y1="135.3846153846154" x2="274.375" y2="135.3846153846154" fill="rgb(0, 0, 0)" stroke="rgb(189, 189, 189)" stroke-width="1px" opacity="0.25"></line><line x1="0" y1="121.84615384615384" x2="274.375" y2="121.84615384615384" fill="rgb(0, 0, 0)" stroke="rgb(189, 189, 189)" stroke-width="1px" opacity="0.25"></line><line x1="0" y1="108.30769230769232" x2="274.375" y2="108.30769230769232" fill="rgb(0, 0, 0)" stroke="rgb(189, 189, 189)" stroke-width="1px" opacity="0.25"></line><line x1="0" y1="94.76923076923076" x2="274.375" y2="94.76923076923076" fill="rgb(0, 0, 0)" stroke="rgb(189, 189, 189)" stroke-width="1px" opacity="0.25"></line><line x1="0" y1="81.23076923076924" x2="274.375" y2="81.23076923076924" fill="rgb(0, 0, 0)" stroke="rgb(189, 189, 189)" stroke-width="1px" opacity="0.25"></line><line x1="0" y1="67.69230769230768" x2="274.375" y2="67.69230769230768" fill="rgb(0, 0, 0)" stroke="rgb(189, 189, 189)" stroke-width="1px" opacity="0.25"></line><line x1="0" y1="54.15384615384616" x2="274.375" y2="54.15384615384616" fill="rgb(0, 0, 0)" stroke="rgb(189, 189, 189)" stroke-width="1px" opacity="0.25"></line><line x1="0" y1="40.61538461538463" x2="274.375" y2="40.61538461538463" fill="rgb(0, 0, 0)" stroke="rgb(189, 189, 189)" stroke-width="1px" opacity="0.25"></line><line x1="0" y1="27.07692307692308" x2="274.375" y2="27.07692307692308" fill="rgb(0, 0, 0)" stroke="rgb(189, 189, 189)" stroke-width="1px" opacity="0.25"></line><line x1="0" y1="13.538461538461549" x2="274.375" y2="13.538461538461549" fill="rgb(0, 0, 0)" stroke="rgb(189, 189, 189)" stroke-width="1px" opacity="0.25"></line><line x1="0" y1="0" x2="274.375" y2="0" fill="rgb(0, 0, 0)" stroke="rgb(189, 189, 189)" stroke-width="1px" opacity="0.25"></line></g></g></g><g><g><line x1="0" y1="162.46153846153848" x2="274.375" y2="162.46153846153848" fill="rgb(0, 0, 0)" stroke="rgb(153, 153, 153)" stroke-width="1.5px"></line></g></g><g><g><line x1="27.4375" y1="0" x2="27.4375" y2="176" fill="rgb(0, 0, 0)" stroke="rgb(153, 153, 153)" stroke-width="1.5px"></line></g></g><g><g><g><g><g><path stroke="rgb(255, 112, 67)" stroke-width="2px" d="M35.613875,-6.9720628392656465L36.17634375,2.975881284876504L36.258656249999994,10.849577157448662L36.272375000000004,6.197960219163452L36.464437499999995,9.791173848946993L36.587906249999996,13.029374486080808L36.69765625,23.24540731132901L37.32871875,20.315477515496063L37.918625,25.293803871634985L38.069531250000004,23.132446716798277L38.1655625,31.832672897230136L38.247875,34.047027644272376L38.467375,45.91355333248402L39.19446875,50.824635549945555L39.317937500000006,48.15689838972729L39.592312500000006,57.506440571601814L40.3605625,59.58416047833017L41.14253125,66.57664792813037L41.36203125,65.77431270282933L41.458062500000004,63.87142389112778L41.5129375,59.32947223440451L41.663843750000005,67.8309069438938L41.924499999999995,73.2078482804908L42.130281249999996,76.9757923573881L42.212593749999996,71.15122479650044L42.500687500000005,79.97303002305955L42.65159375,86.38258922384644L42.67903125,93.03034725260297L42.87109375,96.51322246614825L42.967124999999996,77.93281354892082L43.22778125,81.41024856947864L43.241499999999995,88.05454681147397L43.406125,93.79426000116311L43.5433125,90.58028080997906L43.57075,72.00253884869377L43.6805,76.0966259027334L44.1469375,60.28151870895289L44.24296875,63.61449146830401L44.613375,63.527551091987284L44.6408125,71.38384489149149L44.681968749999996,79.2182359827288L44.73684375,87.21943064207721L44.81915625,92.51441792804616L44.87403125,95.82889988407567L45.2444375,95.32793832162552L45.614843750000006,99.58342714022861L45.889218750000005,103.2389819084596L46.30078125,103.02361397130292L46.3145,96.27010296889834L46.87696875,101.85710114782847L47.17878125,107.31361715295316L47.42571875,102.77425530117921L47.4394375,107.45195356276052L47.9333125,104.52520819557398L48.043062500000005,92.1700004018514L48.152812499999996,98.14412884482437L48.19396875,103.29133765293389L48.674125000000004,87.6434398292205L48.715281250000004,52.49891068248051L48.907343749999995,41.07883509859903L48.9485,47.88016322504009L49.01709375,52.63373159169083L49.181718749999995,38.05064069462874L49.33262499999999,48.261563451487L49.757906250000005,58.98665780950354L49.867656249999996,50.265796691958364L50.347812499999996,52.37788959227431L50.55359375,57.59675966486826L50.786812499999996,38.1314468467877L50.81425,32.735384726104186L50.855406249999994,42.643936395843646L50.91028125,48.946520345210644L51.78828125,58.67957103515104L51.815718749999995,59.661379710949795L51.98034375,67.14827411076517L52.776031249999996,49.305894014981796L52.954375,55.59087014511317L53.05040625,64.59960444287712L53.48940625,67.0741380524019L53.5305625,64.525445694741L53.612874999999995,72.74814212977473L53.626593750000005,77.47181715921263L53.997,84.43421232280356L54.051875,90.30162147740066L54.12046875,95.53688569941143L54.32625,101.0375303421643L54.339968750000004,103.6407174643291L54.58690625,108.39038350378898L55.83531249999999,110.50940007377307L55.95878125,110.96613420734363L56.09596875,112.76854157109942L56.246874999999996,114.43562780962795L56.50753125,104.34134569806696L57.5364375,106.4746330960749L57.74221875,110.64689062886892L58.15378125,111.83992713904246L58.222375,113.6962678715139L59.25128125,116.01666386239981L59.80003125,105.97960089772974L60.280187500000004,109.75607693688109L60.856375,105.13915181785373L60.92496875,109.45301516299357L61.1033125,112.44081778904149L61.2130625,103.77996010785596L61.25421875,107.42567618437108L61.52859375,108.50651019303689L61.77553125,112.78157280541488L61.96759375,117.15712006373415L61.995031250000004,118.85730376057472L62.1459375,111.55216310578282L62.790718749999996,82.69933394058896L62.8044375,83.2955240743602L63.09253124999999,89.14754082399108L63.47665625,96.16895448833606L63.58640625,102.36276473060549L63.69615625,101.55554612338408L64.1214375,105.55327278382711L64.21746875000001,110.84520941916472L64.258625,98.70969866063788L64.38209375,96.89035598239482L64.587875,100.44077724620595L64.71134375,106.40783502301804L64.9445625,109.52709908885642L65.01315625,110.36280103066176L65.02687499999999,114.97580469689616L65.20521875,115.82346541570365L65.2189375,119.97865192142257L65.23265624999999,97.32919094284077L65.36984375,98.01687849827447L65.411,96.88444829428069L65.64421875,100.5484601820222L66.014625,106.11555962324223L66.3164375,101.41569212975652L66.453625,106.63714127652975L66.68684375,111.32559623731935L66.7005625,116.02016489672168L67.50996875,105.44512424435416L67.93525,103.47872035128117L67.97640625,97.48414695626634L68.07243749999999,103.75111445312676L68.22334375,108.63663788753632L69.0601875,107.70830259267257L69.23853125000001,110.70787404948902L69.73240625,102.70662146236319L69.74612499999999,105.47593595546032L70.00678125,110.25951507340277L70.0205,97.3578843087333L70.03421875,87.54943494502626L70.22628125,93.83078420190925L70.24,91.92504170406494L70.25371875,77.11380066739217L70.34975,82.71961963462782L70.58296874999999,84.74108413830096L70.96709375,92.14404334354452L71.22775,96.99573078721299L71.32378125000001,96.48360316143807L71.57071875000001,99.98709574618218L71.611875,105.70265044995645L71.89996875,108.76926981792943L72.22921875,113.43544510818852L72.270375,111.01202802065791L72.7916875,97.36294424577942L73.258125,99.16286394086464L73.47762499999999,104.36367587926146L73.7245625,89.23321903373389L73.87546875,96.14054306876083L74.13612499999999,98.27167401494023L74.3281875,68.71386246642683L74.91809375,71.1241115011988L75.21990625000001,75.58658578104547L75.233625,82.06811773236521L75.32965625,88.82504170001792L75.35709375,93.91134278535097L75.453125,84.51625075321847L75.80981249999999,91.23046246334474L76.35856249999999,90.33172837195612L76.39971874999999,95.03198255186521L76.49575,98.01001405709064L76.660375,101.51393965326518L76.825,103.30174162913674L77.00334375,103.34560673655409L77.0170625,106.99159705472385L77.0445,112.14310964365842L77.5658125,116.65060476878243L77.60696875,113.15488464180484L77.63440625,112.63071702056347L77.66184375,117.07538056808959L77.703,76.47154712368715L77.757875,79.5955217224703L77.79903125000001,76.62910299968901L78.0596875,81.62328497859183L78.3615,89.23834044261757L78.43009375,95.08390715420047L79.03371874999999,93.86222489090783L79.32181250000001,82.91138826705524L80.22725,87.48776385906113L80.25468749999999,94.74270129373228L80.51534375,100.36567347943037L80.96806249999999,103.22062040622762L81.09153124999999,109.02439608335781L81.14640625,96.87988636488045L81.22871875,102.96793804670823L81.39334375000001,107.19088226608422L81.4345,108.65271517315071L81.8460625,97.90187026495548L81.96953125,103.08558673952245L82.05184374999999,108.6500638304068L82.477125,96.2737447204828L82.5045625,101.97349921908057L82.62803124999999,91.57534793927854L82.77893750000001,97.23864216409041L82.86125,103.51497929081444L82.95728125000001,108.64069378483273L83.464875,113.19174175360078L83.80784375,117.2789691159521L83.89015625,118.26333827905293L83.97246874999999,111.60070200198302L84.013625,97.1057496304246L84.3154375,101.12582197548068L84.79559375,106.97968760389911L84.9465,112.4958621523837L85.42665625000001,115.05025908080768L85.72846875,117.96696850620896L85.83821875000001,121.00006027257798L86.67506250000001,124.6451302744402L86.81225,127.95096856268933L86.89456249999999,131.30077439457264L87.73140624999999,118.84463905886129L88.38990625,119.68883124411548L88.5408125,116.3679853845997L88.70543749999999,119.46110467132632L89.51484375,123.09345479072451L89.65203125,126.4024869453898L89.70690625,127.64486043872239L90.049875,130.6516022025745L90.10475000000001,133.3204400297062L90.1870625,135.07539190211287L90.66721875,127.75930655024858L90.708375,124.28207121740658L91.21596875,125.50946356232008L91.35315625000001,126.78998625224081L91.7235625,129.0727294307181L91.77843750000001,132.12152129051339L91.805875,133.53407062105336L91.88818749999999,136.2331367799798L92.01165625,134.85147593548015L92.32718750000001,136.29815921670541L92.42321874999999,109.82787394935346L92.72503124999999,114.80417728164223L92.903375,119.33946879438474L92.95824999999999,117.60074848889029L92.97196875,121.4280440835748L93.38353124999999,125.3393638130913L93.69906250000001,128.4305551196033L93.7265,126.42267039567426L93.76765625,125.43326335202214L93.781375,127.82435090472423L93.891125,104.43389809087435L94.41243750000001,108.78559530383478L94.59078125,111.7466427105297L94.7965625,113.33345667648213L95.05721874999999,104.93769657909584L95.208125,105.92528271301177L95.33159375,111.41178542491797L95.756875,91.46165742657786L95.90778125000001,95.26044782700588L96.34678125,100.99211155116461L96.67603125,105.92025232197146L96.9366875,107.26980102689697L97.11503125,86.76419981549176L97.12875,93.15168329958044L97.2385,98.81363418709158L97.26593749999999,103.63665779219818L97.842125,109.15962831405112L97.897,95.10765136591857L97.951875,95.16838889286572L98.10278124999999,95.08815346352424L98.1439375,99.85151363645483L98.15765625,105.7983351132377L98.59665625,111.13379174703145L98.7475625,114.14417516247987L98.77499999999999,118.59195622348L98.84359375000001,122.34802855738889L99.02193749999999,124.98733961074782L99.11796875,115.89590470609298L99.2963125,117.00131499952354L99.50209374999999,120.75328694450508L99.6255625,124.51833991111207L99.66671875,127.89806264343962L100.07828125,131.24488180318042L100.40753125,133.0368675099208L100.44868749999999,132.73750358670802L100.47612500000001,127.24490778357804L100.531,130.25502657333928L100.6133125,133.21505133060467L100.99743749999999,116.55455258950961L101.1071875,121.09050942488003L101.42271874999999,125.02194772536296L101.55990625,116.25815782836189L102.13609375,120.72528665415447L102.25956249999999,124.77543064534734L102.32815625,119.88181220078073L102.9455,123.95540111357442L103.01409375,126.88608731780704L103.17871875,130.30237312929353L103.80978125,132.2909360346529L105.18165625,133.64670766517747L106.04593750000001,136.22643672293972L106.4300625,130.64540399399985L106.74559375,130.5349070618281L107.44525,132.91323969272338L107.9116875,118.15078533034942L108.09003125000001,122.10807316837757L109.03662499999999,125.9452114077563L109.14637499999999,127.71986545671422L109.256125,130.5677536988319L109.48934375,132.94281162687994L109.70884375,132.65241804051524L109.87346874999999,129.98635903110798L110.36734375,130.76484525509L110.47709375000001,133.4318956003706L110.82006249999999,131.79732663993354L110.83378124999999,134.46199733145153L111.27278125000001,136.8618702478036L111.30021875,118.53478442312701L111.57459375,122.47317699470784L111.6431875,120.9808943893515L111.67062499999999,118.70729260539576L111.6980625,122.34242292938944L112.05475,125.15470380031933L112.83671875,128.0962111897906L113.08365625,131.2574471503679L113.57753124999999,126.06760628346565L113.60496875,128.59626161585282L113.865625,129.77654657402203L114.304625,129.45856973022313L114.3320625,132.53200478458947L114.6613125,134.21495390421546L114.67503125,136.16825684927278L114.74362500000001,138.18517511621636L114.81221875,140.2010097342925L115.3198125,142.23938207199868L115.56675,140.69945642087484L115.82740625000001,142.57312609131782L116.04690624999999,134.96498340039304L116.23896875000001,136.25577197787516L116.48590625,138.76451359683546L116.5270625,141.04954778354937L116.9935,143.11156573656348L117.03465625,141.38190234894083L117.2404375,143.2500836698107L117.30903124999999,132.31151658495523L117.487375,129.34725366047027L117.55596875,131.66425064376435L117.77546875,132.56299137053264L117.84406249999999,135.4280930136528L117.91265625000001,137.56850498690187L117.96753125,133.26873645351145L118.18703125,135.94439265830394L118.65346875,137.19649994703897L118.98271874999999,139.62406159618794L119.6275,141.16334501711054L119.7646875,137.36418970559504L119.81956249999999,138.87049818182086L120.0390625,137.28739485961194L120.18996875,118.31579826223341L120.51921875,122.48643440895398L120.7524375,119.72216617529938L121.01309375,123.93155921119305L121.3011875,126.07458340436135L121.4109375,125.99222948209288L121.53440625,128.98424657977037L121.75390625,131.8542971927524L122.316375,133.70441529023054L122.35753125000001,136.40905149930458L122.5084375,138.92279973557268L122.60446875000001,140.13101776294897L123.12578124999999,142.09691552778085L123.34528125,143.13501865908276L123.41387499999999,144.70899992437225L123.44131250000001,143.6409166502933L123.7156875,140.0801220519525L123.86659375,141.69124589228653L124.072375,142.21437386427863L124.2095625,144.14283377732846L125.07384375,128.4675692946715L125.11500000000001,129.58329638657457L125.1973125,132.41627585621566L125.718625,134.88083769645687L125.9106875,133.4690727373475L125.938125,136.232069370357L126.30853125,103.9779206902042L126.55546875,108.51605655876477L126.93959375,99.84382541064561L127.2276875,80.39173554371905L127.694125,88.15598689940191L128.0508125,93.14094809789795L128.1056875,70.53790447342264L128.31146875,77.72974941957155L128.50353125,76.703924895089L128.75046875,84.68343765253478L129.2855,90.26923011400872L129.43640625,95.28678659743628L129.45012499999999,84.34838078244739L129.83425,87.54429868440083L129.889125,94.75181685803713L129.9165625,89.73801137709088L130.0811875,96.57354808207548L130.4104375,102.55728707448603L130.5750625,108.14664142468858L130.6848125,113.35462919047986L130.767125,117.30353998213755L130.91803125,120.4231043503193L131.02778125,123.5044171085147L131.05521875,126.64893087409398L131.60396875,130.04236428556212L131.7274375,130.0907149269208L131.754875,117.50627471439418L131.79603125,120.73147028864867L132.2213125,118.8526435221792L132.303625,122.23393720135522L132.523125,123.78715243524584L133.44228125,123.40616966230701L133.4834375,127.09974546628004L133.840125,130.39648231072502L133.90871875,133.09987506864803L134.3614375,135.97379496100947L134.37515625,131.30067399596544L134.73184375,134.23549862137426L134.9650625,136.41185052344628L135.0199375,137.46465311206939L135.1296875,138.25666080267268L135.19828125,140.592091803411L135.21200000000002,126.63807968226108L135.2943125,130.00053969567884L135.56868749999998,132.86389924374654L135.74703125000002,135.75015088731507L135.82934375,134.97657975228108L136.1723125,137.52457206585947L136.21346875,138.61337346169097L136.9954375,138.4978226595147L137.62650000000002,138.6324095440551L137.81856249999998,140.98778538937324L137.9283125,127.95149888725537L138.24384375,131.01639902606075L138.2575625,134.01256784362613L138.5045,135.23084800563356L138.8611875,137.65156777381026L139.16299999999998,138.85369229534172L139.42365625,141.05680473940583L139.437375,143.18023752498277L139.82150000000001,145.06866811835496L140.15075000000002,145.89453521137636L140.32909375,147.43048747413272L140.68578125000002,137.39693347886976L140.98759375,138.3424139299657L141.06990625,138.91142065311388L141.17965625,137.8636809331664L141.24825,129.96031814345272L141.97534374999998,128.51937159932885L142.01649999999998,131.24938561147272L142.16740625,134.10830854375934L142.35946875000002,136.52835761067757L142.63384375,137.1776626412094L142.82590624999997,139.6324843660439L142.89450000000002,107.32330269016295L143.45696875000002,112.79448053736556L143.92340625,117.34811567628925L144.10175,115.49866291541716L144.33496875,119.06384970080292L144.4584375,116.55219629451084L144.705375,120.95940348923973L144.78768749999998,125.05733729117422L144.91115625,128.62596407144554L145.5010625,131.74781522470303L145.66568750000002,130.54152564713266L145.693125,133.20651533691867L145.78915625,135.9891003372721L146.22815625,138.53975554568981L146.28303125,140.89090588306823L146.70831249999998,132.17446077924558L146.790625,134.83732226717976L147.0375625,128.26931137990763L147.119875,125.57777461889171L147.504,128.91192286022087L147.53143749999998,132.05218555978757L147.83325,133.99588761183415L147.8606875,119.37678919037009L147.997875,121.7614842034746L148.14878125,125.72600616467085L148.47803125000002,110.34892897161876L148.61521875,115.3817403383022L149.05421875,119.88815065590612L149.1228125,123.65836097468662L149.21884375,123.81703290506493L149.36975,102.38956503625269L149.45206249999998,107.26054463103794L149.76759374999997,101.74332677476681L149.82246875,106.89837964245217L150.70046875,111.20860061436272L150.7690625,94.74892436499451L150.9885625,97.55760759719684L151.35896875,103.92429598956278L151.57846875,108.88539124378102L151.70193749999999,109.85655288721343L151.8665625,107.93738954713336L152.51134374999998,108.73799372832713L152.56621875000002,110.51632789458421L152.9915,108.09828484602568L153.5128125,90.66984958863353L153.69115625,91.93380744943887L153.814625,98.10201146394127L153.95181250000002,104.37940832792896L154.0066875,86.09557064220263L154.363375,93.33244109863345L154.89840625,91.49004134486681L155.06303125000002,98.21354807605469L155.09046875,99.58003424002915L155.1865,104.07404058652963L155.39228125,109.68109943279529L155.51575,114.6324941157257L155.63921875,118.14468532873865L155.73525,122.47502226325143L155.83128125,106.08174675084044L155.91359375000002,110.83490163562358L155.9273125,115.9207450280691L156.009625,120.50566325233325L156.07821875,124.1240441730829L156.21540625,127.93821775357686L156.64068749999998,130.8786465458434L156.95621874999998,119.82046721981597L156.98365625000002,123.52064669582906L157.162,124.7323580617384L157.3815,128.38243054699404L157.601,131.69522772086552L157.61471875,134.68621340955974L157.6284375,135.54524638768837L158.2869375,120.71387388755619L158.41040625,124.8187931169489L158.533875,127.76089246614012L158.6710625,131.14748908024822L159.04146875,131.82546856053287L159.15121875,134.7600437938839L159.23353125,132.74631374214044L159.41187499999998,134.23295191531548L160.11153125,136.5681336623205L160.12525,109.70038185708603L160.16640625,113.11285442607273L160.39962500000001,117.76730694103014L160.56425000000002,122.12935709245687L160.674,125.02010231802551L161.00325,128.71530554217165L161.0306875,120.79668272994127L161.23646875,123.99060377891809L161.2501875,121.23808886253421L161.497125,125.20774481883413L161.71662500000002,127.76774483998001L162.05959375,130.57694836054762L162.2105,133.3019284329016L162.38884375,136.064149751289L162.56718750000002,135.8394153206832L162.80040625,98.36053738842142L162.8964375,103.24936115699082L163.1708125,107.58909322626903L163.308,112.74391463937509L163.472625,116.11623509437848L163.48634375,112.79635241140065L163.91162500000002,112.76193769937672L163.92534375,117.6577883032585L163.9390625,119.87450119173842L164.07625,124.01967135108121L164.25459375,127.44952802266701L164.33690625,130.18430698280952L164.44665625000002,129.5237548741587L164.52896875000002,132.3903258592409L165.48928124999998,134.05680026107194L165.8596875,135.05774684553725L166.28496875,137.65866947682088L166.35356249999998,139.9602165412889L166.5181875,135.49573965138532L167.21784375000001,136.35104372579022L167.24528125,134.226408070933L167.47850000000003,134.73727100257312L167.57453125,132.55385406141215L167.71171875,135.52140232640727L168.31534375,138.13029578465927L168.46625,137.54380482398767L168.68575,139.97710927222064L169.3168125,142.14190818073928L169.35796875,143.85715734096686L169.37168749999998,142.6906374367752L170.04390625000002,136.08372757534443L170.72984375,137.26931651562683L170.81215625000002,139.1297977358284L170.82587500000002,139.61691554880397L170.9081875,141.83244546599778L171.49809375,142.45248068010716L171.7313125,144.07626695089627L172.18403125,145.3504782327025L172.32121874999999,146.82696666754745L172.48584375000002,147.73332767419197L172.59559375,148.09862381003336L172.801375,149.50121537641826L173.0483125,142.8959797254089L173.30896875000002,144.78873255996052L173.44615625,146.52294372055738L173.47359375,148.06290239415344L174.32415625,149.46661284408015L174.46134375,150.74695012967473L174.557375,151.90102035512757L174.62596875,128.1943529380512L174.84546875,131.46007409506788L174.9415,134.25499682317243L175.11984375,134.70892277747683L175.20215624999997,137.1554654119614L176.1761875,114.83218974390837L176.93071875,119.49924716456562L176.98559375,123.69999374685365L178.0145,127.44270684547595L178.6455625,130.7908410237082L178.65928125,133.90040064318666L178.72787499999998,136.70688018337955L178.837625,132.1712591657975L179.08456249999998,123.62774976489088L179.6333125,127.50473414608729L179.96256250000002,130.92744472461408L180.044875,133.8364839839617L180.05859375,133.4552663555959L180.16834375,135.0206536858301L180.52503125,124.81739830042719L180.6759375,127.08380591767711L181.19725,121.16814752909073L181.25212499999998,123.13963800742272L181.3344375,122.19844257760226L181.43046875,123.96537900548691L181.4441875,126.48335056045403L181.6088125,130.05873045041122L181.85574999999997,124.31239713426837L182.239875,122.19150926577586L182.39078124999997,124.42587156809157L182.8709375,128.03500328681895L182.88465625,131.31525414062443L182.99440625000003,124.78148652086882L183.337375,128.32297611462127L183.74893749999998,130.51335311505773L183.886125,132.30112561821238L183.95471874999998,134.2563702130163L184.42115625,136.23990302702538L184.48975,136.72851588070606L184.5171875,137.17013756767338L184.62693750000003,136.7830639016357L184.66809375,135.41457763254033L184.69553125000002,137.9842236963341L185.0659375,139.7098168986801L185.24428125,141.90627300327276L185.5598125,143.5097329751402L185.57353125,145.34441374869988L185.971375,146.95776378819392L186.1634375,148.03643169005394L186.27318749999998,149.18670688615106L186.72590625,134.40385518883025L187.16490625,137.18743251234807L187.892,139.0370060426341L188.12521875,140.98730976391644L188.44074999999998,132.27738859317478L188.6328125,134.57239239706655L188.715125,136.40855650752056L188.83859375,138.91244996337855L189.09925,139.41125280930487L189.1266875,140.36734040372227L189.55196875,142.5016620515719L189.57940624999998,140.9738496175144L189.63428125000002,143.08603896700387L189.812625,141.37762641680212L189.92237500000002,143.37426800776146L189.96353125000002,145.17593755308167L190.01840625,146.65672211563395L190.23790625,148.1270934850932L190.36137499999998,149.40565062515435L190.4436875,147.79435991533612L190.95128125,147.05298913355804L191.019875,130.71049853577279L191.25309374999998,132.53389723166788L191.44515625,134.70324301708973L191.458875,135.52173062461623L191.6509375,137.8370787023632L191.678375,138.9161538294783L191.74696874999998,140.97566736297287L191.99390625,142.56603073700177L192.227125,136.46381412499966L192.43290625,138.84333433333478L192.84446875,140.93558061577133L192.92678125,142.20849973165824L192.995375,142.45633601453432L193.105125,143.9782708051009L193.91453125,145.80507280346072L194.20262499999998,147.35756979094361L194.36725,139.1926525983788L194.46328125,141.44303915326302L194.51815625,96.57298366921583L194.94343750000002,96.66978276032671L195.28640625,100.26654247551701L195.3275625,105.90253592781656L195.43731250000002,111.4455067582073L195.6568125,116.48983546036892L195.78028125,110.15002129481346L196.20556249999998,114.99127653498793L196.23299999999998,118.53733199539423L196.287875,122.900251148275L196.397625,126.1905266038988L196.41134375,129.80507620452207L196.79546875000003,133.00787818237993L196.9189375,130.35892194151631L196.98753125,132.4894335439458L197.08356250000003,134.23044415541688L197.1384375,136.94442682905833L197.4676875,139.4782201630272L197.5225625,141.65369626452946L197.54999999999998,143.61160561433698L197.83809374999998,145.22199025088992L197.8518125,146.90432679535243L197.86553124999998,147.49348592354022L198.05759375,148.94471471854317L198.13990625,150.2645695015189L198.22221875,151.45460453720386L198.592625,147.75993594311024L198.6200625,149.1403472533046L198.64749999999998,150.2615512980831L199.22368749999998,151.43572221745936L199.6626875,152.52055272882131L200.30746875,153.4904428709609L200.8699375,154.16680930170517L200.95225000000002,154.94158102638698L201.02084375,155.42111935079555L201.37753125,150.2756041097086L201.77537500000003,151.16894999980974L202.03603124999998,129.51037728276663L202.7905625,132.74714191128675L202.91403125000002,135.33173906847253L203.68228125,137.59402321742868L203.8331875,139.41731894261767L204.42309375,141.59548487448646L204.47796875,135.00387219859414L204.7111875,137.66562895013317L205.013,139.90318475590385L205.39712500000002,139.20976786031707L205.452,141.4061270225761L205.4794375,143.49229621615402L205.52059375,144.47477125326697L205.74009375,146.1531401121952L205.91843749999998,147.72502196081078L206.0281875,149.03546875180103L206.1105,150.31342959678875L206.16537499999998,151.04131473745096L206.275125,151.13754676079805L206.28884375,152.2345861670452L206.42603125,151.5071974525223L206.43974999999998,152.41325188914269L206.9885,153.34029409288416L207.04337500000003,154.12599724152065L208.36037499999998,154.24891283125066L208.6621875,145.96574783655427L208.89540624999998,137.32004934021245L208.99143750000002,139.70597920349425L209.11490625,141.3195118016271L209.2109375,142.7301306780587L209.36184375,144.618645506037L209.82828125,146.0429967887213L209.95175,147.27516749692282L210.56909374999998,148.6561259965485L211.10412499999998,150.03370694339534L211.5156875,151.24559132388927L212.02328125000003,152.1380158069354L212.9424375,153.14336342726133L213.06590624999998,153.99100235974453L213.079625,152.33916741315005L213.3265625,152.90982647020903L213.4363125,126.29454039424479L213.68325000000002,122.92538826206624L213.847875,119.74928131952484L213.90275,123.90588601516518L214.32803125,91.54238111867045L214.5886875,88.12580055013251L214.616125,95.45606446248019L214.6435625,101.71273465426775L214.65728125,105.61665768518093L214.83562500000002,110.75335179674342L215.4118125,111.67456084613639L215.60387500000002,115.1025544737075L215.87825,119.26518263756648L216.19378125,122.97414844889762L216.49559375,126.67051817183622L216.7836875,125.1775210011446L217.18153125,128.55043811827738L217.42846875,131.91206690367338L217.7714375,134.90179041282312L217.9909375,133.83108989435505L218.347625,127.85594894553256L218.53968749999999,131.22498772824298L219.10215625,134.31529021269603L219.225625,137.01777482307975L219.5823125,139.54834024931037L219.98015625,141.6482142857466L220.1310625,143.63545596449055L220.8993125,144.7206432620128L221.05021875,145.99040785289304L221.091375,146.975355927624L221.24228125,148.37881999542233L221.32459375,141.88492463182183L221.420625,143.91671111677675L221.66756249999997,145.27581931611414L221.92821874999998,100.47955330540586L221.98309375000002,106.61285750114895L222.079125,112.16362874187588L222.1614375,117.18897630600434L222.3260625,121.69651697105887L222.47696875,124.91401311297649L222.55928125,128.65126001386554L222.573,132.01290281696384L223.0394375,135.01123998506077L223.13546875,137.64028307400875L224.17809375000002,136.37897500430313L224.28784375,138.93884582819982L224.3564375,141.12248720987378L224.45246875,136.4622336104021L224.5210625,137.21942757392324L224.53478125,138.81739885122764L224.64453125,140.1814738360589L224.822875,142.37071921471053L224.97378125,144.12028737611232L224.98749999999998,145.94587507900084L225.05609375,147.56715651306033L225.24815625,138.63664761555845L225.35790625,140.97772949671136L225.371625,142.32546937458335L225.48137499999999,144.2290217327297L226.2770625,146.01052998002982L226.3045,140.76147522499195L226.83953125,142.12041744287913L226.85325,144.15137272904477L227.017875,142.57940554971336L227.41571875,142.7805164579792L228.04678125,143.11988085335375L228.34859375000002,145.00544940845538L229.4049375,146.16595225270856L229.597,147.3622451262324L229.72046875,139.44593518933266L229.92624999999998,141.43401567923652L230.15946875,142.75139188324428L230.26921875000002,144.5242744390542L230.6121875,143.45078162246165L230.73565625,145.15035094958898L231.02374999999998,146.528800462886L231.17465625,148.0316399923418L231.35299999999998,149.0731891122385L231.40787500000002,150.39200683215356L231.83315625,151.54606119810038L231.90175,152.1905595943839L231.98406250000002,153.2129033063658L232.13496874999998,154.02605766645422L232.18984375,154.83712812425713L232.395625,155.447005768308L232.58768750000002,156.13491247240586L232.98553124999998,153.61126138146366L233.47940624999998,146.0714433848056L234.11046875,147.60572776085718L234.12418749999998,148.97788614082262L234.17906250000001,150.26076253430352L234.5631875,139.39328684597655L234.7278125,141.6726577449334L234.865,117.69354246435532L234.919875,122.14029470140332L235.1119375,125.50423483599361L235.31771875,128.88876447377672L235.63325,125.00738247234653L235.75671874999998,128.7326373596804L235.94878125,132.06221998939228L236.05853125,134.97641338692563L237.5813125,137.37949753476377L237.8008125,139.41960904947945L237.992875,141.17178651418345L238.1849375,136.7155161179754L238.30840625000002,138.6087639717608L238.70625,140.92330987544156L238.84343750000002,143.04385844110539L238.96690625,144.19004358358671L239.18640625,145.98484696406547L239.26871875,145.81649308729138L239.4745,147.4634107731519L239.5568125,148.83259752863137L239.57053125,149.8871988358328L239.94093750000002,151.06973062656118L239.968375,152.204880573577L240.078125,144.147266074117L240.47596875,134.99407932574343L241.5871875,137.48764924221933L241.90271875000002,139.97729679536357L241.9713125,142.13761809859594L242.38287499999998,144.13224296131108L242.821875,144.67466871371101L242.9865,145.33459137283356L243.1236875,146.7245467487897L243.49409375,148.296832255387L243.645,148.3293423194767L243.96053125,149.7131540869415L244.05656249999998,150.85436299860447L244.09771875,151.66117871446764L244.20746875,152.7255976731524L244.2760625,153.5787883320975L244.38581250000001,153.98739398617374L244.46812500000001,137.79361344457917L244.61903124999998,140.24275816920002L245.19521875,142.2004145766133L245.22265625,144.11966456853085L245.85371875,145.9231356675282L245.8674375,147.28194165527668L246.1966875,148.61309707226525L246.4161875,148.92652663048062L246.663125,150.25109471497507L247.11584374999998,150.38598358105816L247.3765,151.37887902749884L247.5136875,135.41984901612514L247.98012500000002,137.64228487694152L248.37796875,139.95002186508628L248.419125,129.0895779674453L248.54259375,131.4829510300501L248.65234375,130.68530772859458L248.99531249999998,124.17623363060436L249.47546875,127.2566923170788L249.48918749999999,130.65954608042793L250.175125,133.6055917139742L250.21628125,120.05246212766686L250.24371875,124.00263546883112L250.32603125,127.84244462687484L251.23146874999998,131.177759352833L251.65675000000002,134.2458810133576L251.6841875,136.791578030565L252.31525,139.15394355518697L252.35640625,140.45220854439643L252.57590625,141.9056226298841L252.58962499999998,140.01679353608458L252.6170625,142.16428976140503L252.79540625,143.6951290531574L253.57737500000002,132.4775179211477L253.61853125,135.40869415372725L254.5376875,133.6484549931L255.20990625000002,133.80153988315763L255.23734375,136.6027589898241L255.37453125,138.2404539334691L255.8546875,138.46204147652648L255.97815624999998,139.669681215451L256.101625,130.9592790828867L256.96590625,134.09626751187835L257.02078124999997,136.83541715685388L257.81646875,139.35472517966895L258.132,141.33695739957622L258.3789375,142.881671842168L258.7905,143.6890688844135L258.8179375,145.44905512655998L258.99628125,75.6540896938131" style="fill: none;" fill="none"></path></g></g></g></g><g opacity="0.2"><g><g><g><path stroke="rgb(255, 112, 67)" stroke-width="2px" d="M30.057781249999998,-102.50536573850192L30.22240625,15.008775050823523L30.57909375,-191.2671483846811L31.772625,-57.52061975919284L31.813781249999998,90.44916992921097L32.1841875,85.00651438419636L32.3488125,17.87213450211747L32.4585625,-100.2824261005108L32.7329375,145.8773963359686L32.9524375,-202.2876547299899L33.13078125,-132.16962359501764L33.43259375,137.23195329079263L33.5560625,61.37900257110598L33.761843750000004,45.097672902620765L33.81671875,-45.90954325749323L33.95390625,103.48565712341896L34.036218749999996,98.10892477402321L34.4340625,92.94669624475331L34.74959375,136.9129084256979L34.8181875,-113.72791348970853L34.845625,-94.24180162869968L35.065125,24.723789288447456L35.147437499999995,108.03458962073692L35.5864375,-136.4652478144719L35.613875,94.65615516442519L36.17634375,91.31635928153992L36.258656249999994,80.86442852020265L36.272375000000004,-35.21549063462479L36.464437499999995,41.81648214046772L36.587906249999996,41.91881414560172L36.69765625,114.46746492385864L37.32871875,-5.8674684304457685L37.918625,69.81366135523871L38.069531250000004,3.7916238124553914L38.1655625,109.73115743123569L38.247875,53.88378084622897L38.467375,152.26644703745842L39.19446875,94.85831257013173L39.317937500000006,24.228449931511527L39.592312500000006,141.39624303120834L40.3605625,78.23242312211258L41.14253125,129.35390445819266L41.36203125,58.56931572694047L41.458062500000004,46.779619693756125L41.5129375,18.52536472907434L41.663843750000005,144.22007428682767L41.924499999999995,121.52988127561717L42.130281249999996,110.84286429331854L42.212593749999996,18.791922202477103L42.500687500000005,159.28502838542826L42.65159375,144.0135315840061L42.67903125,152.80874551259555L42.87109375,127.83485165926128L42.967124999999996,-89.1744458125188L43.22778125,112.68755377255954L43.241499999999995,147.81950926322205L43.406125,145.42546108135812L43.5433125,61.66768070367667L43.57075,-95.12840329683743L43.6805,112.92977650348955L44.1469375,-82.00704963390642L44.24296875,93.60225655482367L44.613375,62.74529875241794L44.6408125,142.07332508839093L44.681968749999996,149.71235127173938L44.73684375,159.2160233144577L44.81915625,140.16087028613455L44.87403125,125.65448647279005L45.2444375,90.8199305350964L45.614843750000006,137.87788561674265L45.889218750000005,136.13515492585987L46.30078125,101.08550508205708L46.3145,35.49422022012565L46.87696875,152.13582873115175L47.17878125,156.41852023280583L47.42571875,61.92279958724978L47.4394375,149.54864023740475L47.9333125,78.18596267700197L48.043062500000005,-19.021312126746547L48.152812499999996,151.90886627940029L48.19396875,149.6143415203461L48.674125000000004,-53.1825093489427L48.907343749999995,-61.698811824505164L48.9485,109.09049048790565L49.01709375,95.41482417400066L49.181718749999995,-93.19435361715465L49.33262499999999,140.15808881246127L49.757906250000005,155.51082488206717L49.867656249999996,-28.220722345205463L50.347812499999996,71.38645736987776L50.55359375,104.56599360245924L50.786812499999996,-137.05436545151932L50.81425,-15.82867460984452L50.855406249999994,131.82007552110232L50.91028125,105.66930308708778L51.78828125,146.27637011271256L51.815718749999995,68.49759813455435L51.98034375,134.52991426908054L52.776031249999996,-111.27464866638184L52.954375,112.15537691116333L53.05040625,145.67785396942728L53.48940625,89.34485175059393L53.5305625,41.58729677933915L53.612874999999995,146.75217106709115L53.626593750000005,119.98476886749268L53.997,147.09560489196045L54.051875,143.10817955548947L54.12046875,142.65416386952765L54.32625,150.54323772742197L54.339968750000004,127.06936135658852L54.58690625,151.13731183455542L55.83531249999999,129.58052269312054L55.95878125,115.0767362667964L56.09596875,128.99018957981698L56.246874999999996,129.43938875198364L56.50753125,13.49288955101601L57.5364375,125.67420391853038L57.74221875,148.19718068379623L58.15378125,122.57724859164313L58.222375,130.40332446648523L59.25128125,136.90021653358752L59.80003125,15.64607799970187L60.280187500000004,143.74434646276325L60.856375,63.58684206008913L60.92496875,148.27777155087546L61.1033125,139.3310328722L61.2130625,25.832263286297156L61.25421875,140.23711242125586L61.52859375,118.23401401593134L61.77553125,151.25712828911267L61.96759375,156.53703799385292L61.995031250000004,134.15895444613236L62.1459375,45.80590721277091L62.790718749999996,-176.97609299879807L62.8044375,88.66123461723328L63.09253124999999,141.81568573071405L63.47665625,159.3616711611931L63.58640625,158.10705190438492L63.69615625,94.29057924564067L64.1214375,141.53281011031225L64.21746875000001,158.47263601880806L64.258625,-10.509891730088448L64.38209375,80.51627274659964L64.587875,132.39456709531635L64.71134375,160.111352707331L64.9445625,137.60047459602356L65.01315625,117.88411824519817L65.02687499999999,156.4928363928428L65.20521875,123.45241166995123L65.2189375,157.37532952427864L65.23265624999999,-106.51595321068397L65.36984375,104.20606637001038L65.411,86.69257664680482L65.64421875,133.52456662288077L66.014625,156.2194538437403L66.3164375,59.116885258601265L66.453625,153.63018302734082L66.68684375,153.52169042367203L66.7005625,158.2712824161236L67.50996875,10.269759214841415L67.93525,85.78108545450064L67.97640625,43.53298678764931L68.07243749999999,160.15382156119898L68.22334375,152.60634854206674L69.0601875,99.35328498253456L69.23853125000001,137.70401703394376L69.73240625,30.69534848286557L69.74612499999999,130.39976629844077L70.00678125,153.3117269873619L70.0205,-18.75679221520058L70.03421875,-0.7266090833223693L70.22628125,150.362927372639L70.24,74.77335926202628L70.25371875,-56.187368392944336L70.34975,133.17199024787314L70.58296874999999,102.93426464154169L70.96709375,158.7706760924596L71.22775,140.66091772226184L71.32378125000001,91.87445453497081L71.57071875000001,131.51852897497326L71.611875,157.14264273414247L71.89996875,136.36884410564716L72.22921875,155.4310226876002L72.270375,89.2012742482699L72.7916875,-25.478809650127722L73.258125,115.3621411873744L73.47762499999999,151.17098330075925L73.7245625,-46.940892512981726L73.87546875,158.3064593581053L74.13612499999999,117.45185252336354L74.3281875,-197.30644138042746L74.91809375,92.81635280755849L75.21990625000001,115.74885428868808L75.233625,140.40190527989313L75.32965625,149.63735739542886L75.35709375,139.68805254422702L75.453125,-0.0395775208106528L75.80981249999999,151.6583678447283L76.35856249999999,82.24312155063338L76.39971874999999,137.33427016551678L76.49575,124.81229760096625L76.660375,133.04927001549646L76.825,119.39195941044733L77.00334375,103.74039270327643L77.0170625,139.80550991571866L77.0445,158.50672294084842L77.5658125,157.21806089236185L77.60696875,81.69340350077704L77.63440625,107.91320842962999L77.66184375,157.0773524940014L77.703,-288.9629538609432L77.757875,107.71129311048068L77.79903125000001,49.931334495544455L78.0596875,126.57092278737288L78.3615,157.77383961700477L78.43009375,147.69400755717203L79.03371874999999,82.86708452151373L79.32181250000001,-15.646141345684363L80.22725,128.6751441863867L80.25468749999999,160.03713820473507L80.51534375,150.9724231499892L80.96806249999999,128.91514274707205L81.09153124999999,161.2583771769244L81.14640625,-12.42070110027609L81.22871875,157.7604031826441L81.39334375000001,145.19738024014694L81.4345,121.80921133664937L81.8460625,1.1442660918602456L81.96953125,149.73903501033783L82.05184374999999,158.7303576480884L82.477125,-15.113127268277694L82.5045625,153.27128970623016L82.62803124999999,-2.008013578561627L82.77893750000001,148.20829018721216L82.86125,160.0020134311456L82.95728125000001,154.77212423086166L83.464875,154.15117347240448L83.80784375,154.06401537702635L83.89015625,127.1226607469412L83.97246874999999,51.63697550846982L84.013625,-33.348821713374235L84.3154375,137.3064730809285L84.79559375,159.66447825959094L84.9465,162.14143308868202L85.42665625000001,138.03983143659738L85.72846875,144.21735333479367L85.83821875000001,148.29788616987375L86.67506250000001,157.4507602911729L86.81225,157.7035131569092L86.89456249999999,161.44902688150222L87.73140624999999,6.7394210375272205L88.38990625,127.28656091139868L88.5408125,86.48037264897275L88.70543749999999,147.29917825185336L89.51484375,155.7846058652951L89.65203125,156.18377633736685L89.70690625,138.826221878712L90.049875,157.7122780772356L90.10475000000001,157.33998047388516L90.1870625,150.86995875376923L90.66721875,61.91453838348391L90.708375,92.98695322183461L91.21596875,136.5559946665397L91.35315625000001,138.31469046152554L91.7235625,149.61741803701108L91.77843750000001,159.56064802866715L91.805875,146.24701459591205L91.88818749999999,160.5247322103152L92.01165625,122.4165283349844L92.32718750000001,149.31830874773172L92.42321874999999,-128.40469345679648L92.72503124999999,159.59090727223798L92.903375,160.15709240906514L92.95824999999999,101.95226573944092L92.97196875,155.87370443573363L93.38353124999999,160.54124137873833L93.69906250000001,156.25127687821023L93.7265,108.35170788031358L93.76765625,116.52859995915338L93.781375,149.34413887904242L93.891125,-106.08017723376936L94.41243750000001,147.95087022047775L94.59078125,138.39606937078327L94.7965625,127.61478237005382L95.05721874999999,29.375855702620292L95.208125,114.81355791825514L95.33159375,160.79030983207318L95.756875,-88.08949455848106L95.90778125000001,129.44956143085773L96.34678125,152.57708506859265L96.67603125,150.27351925923273L96.9366875,119.41573937122637L97.11503125,-97.78621108715349L97.12875,150.63903465637796L97.2385,149.7711921746914L97.26593749999999,147.04387023815744L97.842125,158.86636301072744L97.897,-31.36014116727389L97.951875,95.71502663539007L98.10278124999999,94.36603459945091L98.1439375,142.72175519283002L98.15765625,159.31972840428352L98.59665625,159.15290145117504L98.7475625,141.23762590151566L98.77499999999999,158.62198577248134L98.84359375000001,156.15267956256866L99.02193749999999,148.74113909097818L99.11796875,34.0729905641996L99.2963125,126.95000764039845L99.50209374999999,154.5210344493389L99.6255625,158.40381661057472L99.66671875,158.31556723438777L100.07828125,161.36625424084755L100.40753125,149.16473887058405L100.44868749999999,130.0432282777933L100.47612500000001,77.81154555540819L100.531,157.3460956811905L100.6133125,159.85527414599292L100.99743749999999,-33.389936080345734L101.1071875,161.91412094321387L101.42271874999999,160.40489242970943L101.55990625,37.38404875535233L102.13609375,160.9294460862875L102.25956249999999,161.22672656608316L102.32815625,75.83924619968123L102.9455,160.61770132871774L103.01409375,153.2622631559005L103.17871875,161.04894543267213L103.80978125,150.18800218288715L105.18165625,145.84865233989862L106.04593750000001,159.44399824280006L106.4300625,80.41610943354095L106.74559375,129.5404346722823L107.44525,154.31823337078094L107.9116875,-14.711303931016182L108.09003125000001,157.72366371063086L109.03662499999999,160.47945556216516L109.14637499999999,143.69175189733505L109.256125,156.19874787789124L109.48934375,154.31833297931232L109.70884375,130.03887576323288L109.87346874999999,105.99182794644281L110.36734375,137.771221270928L110.47709375000001,157.43534870789603L110.82006249999999,117.08620599599986L110.83378124999999,158.44403355511335L111.27278125000001,158.46072649497253L111.30021875,-46.4089879989624L111.57459375,157.9187101389353L111.6431875,107.55035094114452L111.67062499999999,98.24487654979411L111.6980625,155.05859584533252L112.05475,150.4652316386883L112.83671875,154.5697776950323L113.08365625,159.70857079556353L113.57753124999999,79.35903848134555L113.60496875,151.35415960733707L113.865625,140.39911119754498L114.304625,126.59677813603327L114.3320625,160.19292027388627L114.6613125,149.36149598084964L114.67503125,153.74798335478857L114.74362500000001,156.33743951870844L114.81221875,158.343521296978L115.3198125,160.58473311135404L115.56675,126.8401255607605L115.82740625000001,159.43615312530443L116.04690624999999,66.49169918207022L116.23896875000001,147.87286917521402L116.48590625,161.34318816747802L116.5270625,161.61485546397475L116.9935,161.66972731369046L117.03465625,125.81493186033688L117.2404375,160.06371555763943L117.30903124999999,33.86441282125621L117.487375,102.66888734010548L117.55596875,152.517223493411L117.77546875,140.65165791144736L117.84406249999999,161.21400780173448L117.91265625000001,156.83221274614334L117.96753125,94.57081965299754L118.18703125,160.02529850143654L118.65346875,148.4654655456543L118.98271874999999,161.47211643852867L119.6275,155.0168958054139L119.7646875,103.17179190195523L119.81956249999999,152.42727446785338L120.0390625,123.03946495973148L120.18996875,-52.42857111417331L120.51921875,160.02215972943947L120.7524375,94.84375207240764L121.01309375,161.81609653423612L121.3011875,145.36180114287598L121.4109375,125.25104418167702L121.53440625,155.91240045886772L121.75390625,157.68475270959047L122.316375,150.35547816753387L122.35753125000001,160.7507773809708L122.5084375,161.54653386198558L122.60446875000001,151.00498000933572L123.12578124999999,159.78999541126765L123.34528125,152.47794684079975L123.41387499999999,158.87483131197783L123.44131250000001,134.0281671835826L123.7156875,108.03297066688538L123.86659375,156.1913604552929L124.072375,146.92252561220758L124.2095625,161.4989729947769L125.07384375,-12.60981104924128L125.11500000000001,139.62484021370227L125.1973125,157.91309108298557L125.718625,157.06189425862752L125.9106875,120.7631881053631L125.938125,161.0990390674426L126.30853125,-186.3094174311711L126.55546875,149.35927937580988L126.93959375,21.793745077573348L127.2276875,-94.67707325862006L127.694125,158.03424910054758L128.0508125,138.00559888436243L128.1056875,-132.88948814685529L128.31146875,142.45635393491156L128.50353125,67.471504174746L128.75046875,156.49905246954697L129.2855,140.5413622672741L129.43640625,140.44479494828445L129.45012499999999,-14.097271552452671L129.83425,116.30755980198198L129.889125,159.61948042076367L129.9165625,44.6137620485746L130.0811875,158.09337842693694L130.4104375,156.41093800618097L130.5750625,158.45083057651155L130.6848125,160.22651908260124L130.767125,152.84373710705682L130.91803125,148.4991836639551L131.02778125,151.23623193227328L131.05521875,154.94955476430746L131.60396875,160.58326498877543L131.7274375,130.52587069914892L131.754875,4.246312801654524L131.79603125,149.75823045693912L132.2213125,101.94320262395419L132.303625,152.6655803139393L132.523125,137.76608954026148L133.44228125,119.97732470585748L133.4834375,160.34192770203717L133.840125,160.06711391073006L133.90871875,157.43040988995477L134.3614375,161.83907399226266L134.37515625,89.24258531056918L134.73184375,160.64892025005358L134.9650625,155.99901764209454L135.0199375,146.93987640967734L135.1296875,145.3847300181022L135.19828125,161.61097081005573L135.21200000000002,1.0519705919118998L135.2943125,160.2626798164386L135.56868749999998,158.634135176356L135.74703125000002,161.72641567943188L135.82934375,128.01443953697498L136.1723125,160.45650288806513L136.21346875,148.41258602417432L136.9954375,137.45786543992847L137.62650000000002,139.8436915049186L137.81856249999998,162.18616799723642L137.9283125,10.6249203681946L138.24384375,158.60050027530926L138.2575625,160.97808720171452L138.5045,146.1953694637005L138.8611875,159.43804568740038L139.16299999999998,149.67281298912488L139.42365625,160.8848167359829L139.437375,162.29113259517516L139.82150000000001,162.06454345870478L140.15075000000002,153.32733904856903L140.32909375,161.2540578389397L140.68578125000002,47.09494752150316L140.98759375,146.85173798982913L141.06990625,144.0324811614477L141.17965625,128.4340234536391L141.24825,58.830053036029526L141.97534374999998,115.55085270221416L142.01649999999998,155.8195117207674L142.16740625,159.83861493433898L142.35946875000002,158.30879921294175L142.63384375,143.02140791599567L142.82590624999997,161.7258798895547L142.89450000000002,-183.4593323927659L143.45696875000002,162.03508116218907L143.92340625,158.33083192660257L144.10175,98.85358806756825L144.33496875,151.15053076927478L144.4584375,93.94731563788194L144.705375,160.6242682417998L144.78768749999998,161.93874150858477L144.91115625,160.74360509388723L145.5010625,159.84447560402063L145.66568750000002,119.68491944899925L145.693125,157.1914225449929L145.78915625,161.03236534045294L146.22815625,161.49565242144925L146.28303125,162.05125891947404L146.70831249999998,53.726454844841605L146.790625,158.8030756585873L147.0375625,69.15721339445848L147.119875,101.3539437697484L147.504,158.91925703218348L147.53143749999998,160.3145498558879L147.83325,151.4892060802533L147.8606875,-12.195096602806675L147.997875,143.22373932141525L148.14878125,161.40670381543728L148.47803125000002,-28.04476576585038L148.61521875,160.67704263845317L149.05421875,160.44584351434156L149.1228125,157.59025384371097L149.21884375,125.24508027846996L149.36975,-90.45764578305759L149.45206249999998,151.09936098410532L149.76759374999997,52.08836606832652L149.82246875,153.29385545162052L150.70046875,150.0005893615576L150.7690625,-53.388161879319405L150.9885625,122.8357566870176L151.35896875,161.22449152085645L151.57846875,153.53524853174503L151.70193749999999,118.59700767810527L151.8665625,90.66491948641263L152.51134374999998,115.94343135907098L152.56621875000002,126.5213353908979L152.9915,86.33589740899893L153.5128125,-66.18606772789589L153.69115625,103.30942819668695L153.814625,153.6158475944629L153.95181250000002,160.87598010381825L154.0066875,-78.45896852933444L154.363375,158.46427520651085L154.89840625,74.9084435609671L155.06303125000002,158.7251086567457L155.09046875,111.87840971579918L155.1865,144.5200977050341L155.39228125,160.14462904918653L155.51575,159.1950462620992L155.63921875,149.75440624585517L155.73525,161.44805467386658L155.83128125,-41.45773286085864L155.91359375000002,153.61329559867198L155.9273125,161.6933355600788L156.009625,161.76992727071047L156.07821875,156.68947245982977L156.21540625,162.26577997802255L156.64068749999998,157.34250567624204L156.95621874999998,20.296853285569426L156.98365625000002,156.82226197994672L157.162,135.63776035492236L157.3815,161.23308291429512L157.601,161.51040228570884L157.61471875,161.60508460780747L157.6284375,143.27654319084607L158.2869375,-12.76847861363337L158.41040625,161.7630661814832L158.533875,154.23978660886104L158.6710625,161.6268586072211L159.04146875,137.9272838830948L159.15121875,161.17122089404327L159.23353125,114.62274327644936L159.41187499999998,147.61269547389105L160.11153125,157.58476938536532L160.12525,-132.10938439002402L160.16640625,143.82510754695303L160.39962500000001,159.65737957564684L160.56425000000002,161.38780845529757L160.674,151.03680934814304L161.00325,161.97213455948693L161.0306875,49.52907741986789L161.23646875,152.7358932197094L161.2501875,96.46545461507945L161.497125,160.93464842553323L161.71662500000002,150.8077450302931L162.05959375,155.85978004565604L162.2105,157.82674908408754L162.38884375,160.92414161677544L162.56718750000002,133.8168054452309L162.80040625,-238.94936400193436L162.8964375,147.24877507411517L163.1708125,146.6466818497731L163.308,159.13730735732958L163.472625,146.4671191894091L163.48634375,82.91740826460033L163.91162500000002,112.45220529116116L163.92534375,161.72044373819463L163.9390625,139.82491718805753L164.07625,161.32620278516643L164.25459375,158.3182380669392L164.33690625,154.7973176240921L164.44665625000002,123.57878589630127L164.52896875000002,158.18946472498087L165.48928124999998,149.05506987755115L165.8596875,144.06626610572522L166.28496875,161.0669731583733L166.35356249999998,160.67414012150124L166.5181875,95.315447642253L167.21784375000001,144.04878039543445L167.24528125,115.10468717721791L167.47850000000003,139.33503738733438L167.57453125,112.90310159096352L167.71171875,162.22933671136315L168.31534375,161.61033690892734L168.46625,132.2653861779433L168.68575,161.8768493063175L169.3168125,161.62509835740693L169.35796875,159.29439978301525L169.37168749999998,132.19195829904996L170.04390625000002,76.62153882246751L170.72984375,147.9396169781685L170.81215625000002,155.87412871764258L170.82587500000002,144.00097586558417L170.9081875,161.77221472074206L171.49809375,148.03279760709174L171.7313125,158.69034338799807L172.18403125,156.81837976895847L172.32121874999999,160.11536258115217L172.48584375000002,155.89057673399265L172.59559375,151.38628903260596L172.801375,162.1245394738821L173.0483125,83.4488588663248L173.30896875000002,161.8235080709251L173.44615625,162.13084416592923L173.47359375,161.92253045651776L174.32415625,162.10000689342044L174.46134375,162.26998570002615L174.557375,162.28765238420323L174.62596875,-85.16565381563626L174.84546875,160.85156450821802L174.9415,159.40930137611352L175.11984375,138.79425636621622L175.20215624999997,159.17434912232252L176.1761875,-86.07729126856879L176.93071875,161.50276395048087L176.98559375,161.50671298744587L178.0145,161.12712473307664L178.6455625,160.92404862779838L178.65928125,161.886437218493L178.72787499999998,161.9651960451156L178.837625,91.35067000755897L179.08456249999998,46.73616515673125L179.6333125,162.3975935768551L179.96256250000002,161.73183993135507L180.044875,160.01783731809027L180.05859375,130.02430770030386L180.16834375,149.10913965793756L180.52503125,32.9880998318012L180.6759375,147.4814744729262L181.19725,67.92722203181341L181.25212499999998,140.88305231241077L181.3344375,113.72768370921794L181.43046875,139.86780685644882L181.4441875,149.14509455515787L181.6088125,162.23714946002627L181.85574999999997,72.5953972889827L182.239875,103.10351844934316L182.39078124999997,144.5351322889328L182.8709375,160.51718875536554L182.88465625,160.83751182487376L182.99440625000003,65.9775779430683L183.337375,160.1963824583934L183.74893749999998,150.2267461189857L183.886125,148.39107814660437L183.95471874999998,151.8535715662516L184.42115625,154.09169835310715L184.48975,141.1260315638322L184.5171875,141.14473275037912L184.62693750000003,133.2994009072964L184.66809375,123.0982012106822L184.69553125000002,161.11103827047808L185.0659375,155.24015571979376L185.24428125,161.674377944607L185.5598125,157.94087272194716L185.57353125,161.85654071073694L185.971375,161.47791414364025L186.1634375,157.7444428067941L186.27318749999998,159.53918365102547L186.72590625,1.3581899129427306L187.16490625,162.23962842400832L187.892,155.68316781520844L188.12521875,158.5400432554575L188.44074999999998,53.88809805649979L188.6328125,155.22742663209254L188.715125,152.93403350160673L188.83859375,161.44749106610053L189.09925,143.90047842264175L189.1266875,148.9721287534787L189.55196875,161.71055688221867L189.57940624999998,127.22353771099678L189.63428125000002,162.09574311240934L189.812625,126.00191346498637L189.92237500000002,161.34404232639534L189.96353125000002,161.39096346096352L190.01840625,159.98378317860457L190.23790625,161.36043581022665L190.36137499999998,160.91266488570434L190.4436875,133.29274352697223L190.95128125,140.38065209755533L191.019875,-16.371916844294645L191.25309374999998,148.9444854947237L191.44515625,154.22735508588642L191.458875,142.8881190923544L191.6509375,158.6752114020861L191.678375,148.62782997351425L191.74696874999998,159.51128916442394L191.99390625,156.87930110326178L192.227125,81.54386461698093L192.43290625,160.25901620835066L192.84446875,159.76579715770023L192.92678125,153.66477177464046L192.995375,144.68686256041892L193.105125,157.67568392020004L193.91453125,162.24629078869924L194.20262499999998,161.3300426782897L194.36725,65.70839786529542L194.46328125,161.69651814722098L194.51815625,-307.2575156872089L194.94343750000002,97.5409745803246L195.28640625,132.6373799122297L195.3275625,156.62647699851257L195.43731250000002,161.33224423172382L195.6568125,161.88879377982363L195.78028125,53.091693804814284L196.20556249999998,158.5625736965583L196.23299999999998,150.451831139051L196.287875,162.16652352420184L196.397625,155.80300570451297L196.41134375,162.33602261013135L196.79546875000003,161.8330959831006L196.9189375,106.51831577374384L196.98753125,151.6640379658112L197.08356250000003,149.8995396586565L197.1384375,161.37027089183147L197.4676875,162.28236016874703L197.5225625,161.23298117804987L197.54999999999998,161.23278976260468L197.83809374999998,159.7154519798664L197.8518125,162.04535569551473L197.86553124999998,152.79591807723045L198.05759375,162.0057738735699L198.13990625,162.1432625483005L198.22221875,162.16491985836856L198.592625,114.5079185962677L198.6200625,161.5640490450538L198.64749999999998,160.35238770108955L199.22368749999998,162.00326049184568L199.6626875,162.28402733107887L200.30746875,162.2194541502171L200.8699375,160.25410717840379L200.95225000000002,161.91452654852316L201.02084375,159.73696427047253L201.37753125,103.96596693992615L201.77537500000003,159.2090630107201L202.03603124999998,-65.41677717062144L202.7905625,161.8780235679677L202.91403125000002,158.5931134831447L203.68228125,157.9545805580341L203.8331875,155.82698046931856L204.42309375,161.19897826130574L204.47796875,75.67935811556305L204.7111875,161.62143971398473L205.013,160.04118700783985L205.39712500000002,132.9690158000359L205.452,161.17335948290733L205.4794375,162.26781895835526L205.52059375,153.31704658728378L205.74009375,161.25845984254892L205.91843749999998,161.87195859835126L206.0281875,160.8294898707133L206.1105,161.8150772016782L206.16537499999998,157.592281003411L206.275125,152.00363497092172L206.28884375,162.10794082326956L206.42603125,144.96069902181625L206.43974999999998,160.56774181872606L206.9885,161.68367392655747L207.04337500000003,161.19732557924894L208.36037499999998,155.35515313882095L208.6621875,71.41726288428674L208.89540624999998,59.50876287313609L208.99143750000002,161.17934797303036L209.11490625,155.84130518482283L209.2109375,155.42570056594334L209.36184375,161.61527895784147L209.82828125,158.86215833287972L209.95175,158.36470387073663L210.56909374999998,161.08475249317976L211.10412499999998,162.43193546501703L211.5156875,162.15255074833448L212.02328125000003,160.16983615435086L212.9424375,162.1914920101945L213.06590624999998,161.61975275209315L213.079625,137.4726528938L213.3265625,158.04575798373955L213.4363125,-113.24303428943342L213.68325000000002,92.6030190724593L213.847875,91.16431883665233L213.90275,161.31532827592812L214.32803125,-199.72916294978216L214.5886875,57.37657543329093L214.616125,161.42843967360946L214.6435625,158.0227663803559L214.65728125,140.75196496339944L214.83562500000002,156.98359880080588L215.4118125,119.96544229067288L215.60387500000002,145.95449712184757L215.87825,156.7288361122975L216.19378125,156.35484075087768L216.49559375,159.93784567828362L216.7836875,111.74054646492004L217.18153125,158.9066921724723L217.42846875,162.16672597223751L217.7714375,161.80930199517078L217.9909375,124.19478522814236L218.347625,74.07968040613028L218.53968749999999,161.54633677263672L219.10215625,162.12801257277337L219.225625,161.34013631653326L219.5823125,162.32342908538592L219.98015625,160.54708061367273L220.1310625,161.52063107318602L220.8993125,154.48732893971294L221.05021875,157.4182891708154L221.091375,155.83988860020273L221.24228125,161.0099966056072L221.32459375,83.43986635941727L221.420625,162.20278948137107L221.66756249999997,157.50779311015054L221.92821874999998,-302.6868407909687L221.98309375000002,161.81259526283696L222.079125,162.12056990841833L222.1614375,162.41710438316042L222.3260625,162.26438295654953L222.47696875,153.87147839023515L222.55928125,162.28648212186707L222.573,162.26768804484837L223.0394375,161.99627449793311L223.13546875,161.30167087454063L224.17809375000002,125.02720237695254L224.28784375,161.9776832432701L224.3564375,160.77525964493935L224.45246875,94.51995121515714L224.5210625,144.0341732456134L224.53478125,153.19914034696725L224.64453125,152.45814869954035L224.822875,162.073927622575L224.97378125,159.8664008287283L224.98749999999998,162.37616440499775L225.05609375,162.15868941959567L225.24815625,58.26206753804135L225.35790625,162.04746642708778L225.371625,154.4551282754311L225.48137499999999,161.36099295604689L226.2770625,162.044104205731L226.3045,93.51998242965111L226.83953125,154.35089740386374L226.85325,162.4299703045354L227.017875,128.43170093573056L227.41571875,144.59051463237174L228.04678125,146.17416041172467L228.34859375000002,161.97556640437014L229.4049375,156.61047785098737L229.597,158.12888098794681L229.72046875,68.19914575723502L229.92624999999998,159.3267400883711L230.15946875,154.60777771931427L230.26921875000002,160.48021744134334L230.6121875,133.7893462731288L230.73565625,160.446474893735L231.02374999999998,158.934846082559L231.17465625,161.55719575744408L231.35299999999998,158.44713119130867L231.40787500000002,162.26136631138908L231.83315625,161.93255049162187L231.90175,157.99104516093547L231.98406250000002,162.41399671420314L232.13496874999998,161.34444690724976L232.18984375,162.1367622444836L232.395625,160.93590456476576L232.58768750000002,162.32607280928642L232.98553124999998,130.89840156298416L233.47940624999998,78.21308141488296L234.11046875,161.4142871453212L234.12418749999998,161.3273115605116L234.17906250000001,161.80665007563167L234.5631875,41.58600565103385L234.7278125,162.186995835545L234.865,-98.11849506084734L234.919875,162.16106483483546L235.1119375,155.77969604730606L235.31771875,159.34953121382458L235.63325,90.074944459475L235.75671874999998,162.25993134568517L235.94878125,162.02846365679915L236.05853125,161.2041539647258L237.5813125,159.00725486530706L237.8008125,157.7806126819207L237.992875,156.9413836965194L238.1849375,96.60908255210289L238.30840625000002,155.64799465582922L238.70625,161.75422300856846L238.84343750000002,162.12879553207986L238.96690625,154.50570986591853L239.18640625,162.13807738837428L239.26871875,144.30130819632456L239.4745,162.2856699458968L239.5568125,161.1552783279465L239.57053125,159.37861060064571L239.94093750000002,161.71251674311665L239.968375,162.42123009671923L240.078125,71.62873557897716L240.47596875,52.61539859038133L241.5871875,159.9297784905021L241.90271875000002,162.38412477366197L241.9713125,161.5805098276872L242.38287499999998,162.0838667257474L242.821875,149.55650048531018L242.9865,151.27389530493662L243.1236875,159.23414513239496L243.49409375,162.4474018147627L243.645,148.62193289628394L243.96053125,162.1674599941247L244.05656249999998,161.12524320357122L244.09771875,158.9225201572363L244.20746875,162.30536830131538L244.2760625,161.25750426260325L244.38581250000001,157.6648448728598L244.46812500000001,-7.950411429772007L244.61903124999998,162.28506069078756L245.19521875,159.81932224333286L245.22265625,161.39291449578909L245.85371875,162.1543755585041L245.8674375,159.51119554501312L246.1966875,160.5934958251623L246.4161875,151.74739265441895L246.663125,162.17220747542495L247.11584374999998,151.59998337580606L247.3765,160.31493804546503L247.5136875,-8.211421086238005L247.98012500000002,157.64420762428873L248.37796875,160.71965475838917L248.419125,31.345582888676585L248.54259375,153.02330859349325L248.65234375,123.50651801549472L248.99531249999998,65.59456674869246L249.47546875,154.98082049534872L249.48918749999999,161.28522995057014L250.175125,160.12000241589087L250.21628125,-1.9257041490995057L250.24371875,159.55419553930943L250.32603125,162.40072704926848L251.23146874999998,161.19559188645619L251.65675000000002,161.8589759580791L251.6841875,159.70285118543185L252.31525,160.41523327678442L252.35640625,152.13659344728177L252.57590625,154.98634939927322L252.58962499999998,123.01733169188866L252.6170625,161.4917557892891L252.79540625,157.47268267892875L253.57737500000002,31.51901773306041L253.61853125,161.78928024694324L254.5376875,117.80630254745483L255.20990625000002,135.17930389367618L255.23734375,161.8137309498225L255.37453125,152.97970842627376L255.8546875,140.45632936404303L255.97815624999998,150.53843886577167L256.101625,52.565659889808074L256.96590625,162.32916337280318L257.02078124999997,161.48776396163382L257.81646875,162.02849738500439L258.132,159.17704737874178L258.3789375,156.78410182549402L258.7905,150.9556422646229L258.8179375,161.28893130587844L258.99628125,-552.5005992009089" style="fill: none;" fill="none"></path></g></g></g></g></g></g><g transform="translate(55, 176)" clip-path="url(#clip_1)"><clipPath id="clip_1"><rect width="274" height="24"></rect></clipPath><g><g><line x1="0" y1="0" x2="0" y2="5" style="visibility: inherit;" fill="rgb(0, 0, 0)" stroke="rgb(204, 204, 204)" stroke-width="1px"></line><line x1="27.4375" y1="0" x2="27.4375" y2="5" style="visibility: inherit;" fill="rgb(0, 0, 0)" stroke="rgb(204, 204, 204)" stroke-width="1px"></line><line x1="54.875" y1="0" x2="54.875" y2="5" style="visibility: inherit;" fill="rgb(0, 0, 0)" stroke="rgb(204, 204, 204)" stroke-width="1px"></line><line x1="82.3125" y1="0" x2="82.3125" y2="5" style="visibility: inherit;" fill="rgb(0, 0, 0)" stroke="rgb(204, 204, 204)" stroke-width="1px"></line><line x1="109.75" y1="0" x2="109.75" y2="5" style="visibility: inherit;" fill="rgb(0, 0, 0)" stroke="rgb(204, 204, 204)" stroke-width="1px"></line><line x1="137.1875" y1="0" x2="137.1875" y2="5" style="visibility: inherit;" fill="rgb(0, 0, 0)" stroke="rgb(204, 204, 204)" stroke-width="1px"></line><line x1="164.625" y1="0" x2="164.625" y2="5" style="visibility: inherit;" fill="rgb(0, 0, 0)" stroke="rgb(204, 204, 204)" stroke-width="1px"></line><line x1="192.0625" y1="0" x2="192.0625" y2="5" style="visibility: inherit;" fill="rgb(0, 0, 0)" stroke="rgb(204, 204, 204)" stroke-width="1px"></line><line x1="219.5" y1="0" x2="219.5" y2="5" style="visibility: inherit;" fill="rgb(0, 0, 0)" stroke="rgb(204, 204, 204)" stroke-width="1px"></line><line x1="246.9375" y1="0" x2="246.9375" y2="5" style="visibility: inherit;" fill="rgb(0, 0, 0)" stroke="rgb(204, 204, 204)" stroke-width="1px"></line><line x1="274.375" y1="0" x2="274.375" y2="5" style="visibility: inherit;" fill="rgb(0, 0, 0)" stroke="rgb(204, 204, 204)" stroke-width="1px"></line></g><g transform="translate(0, 8)"><text x="0" y="0" dx="0em" dy="0.95em" style="text-anchor: middle; visibility: hidden; font-family: Roboto, sans-serif; font-size: 12px; font-weight: 200;" fill="rgb(255, 255, 255)" stroke="none" stroke-width="1px">-2k</text><text x="27.4375" y="0" dx="0em" dy="0.95em" style="text-anchor: middle; visibility: inherit; font-family: Roboto, sans-serif; font-size: 12px; font-weight: 200;" fill="rgb(255, 255, 255)" stroke="none" stroke-width="1px">0</text><text x="54.875" y="0" dx="0em" dy="0.95em" style="text-anchor: middle; visibility: inherit; font-family: Roboto, sans-serif; font-size: 12px; font-weight: 200;" fill="rgb(255, 255, 255)" stroke="none" stroke-width="1px">2k</text><text x="82.3125" y="0" dx="0em" dy="0.95em" style="text-anchor: middle; visibility: inherit; font-family: Roboto, sans-serif; font-size: 12px; font-weight: 200;" fill="rgb(255, 255, 255)" stroke="none" stroke-width="1px">4k</text><text x="109.75" y="0" dx="0em" dy="0.95em" style="text-anchor: middle; visibility: inherit; font-family: Roboto, sans-serif; font-size: 12px; font-weight: 200;" fill="rgb(255, 255, 255)" stroke="none" stroke-width="1px">6k</text><text x="137.1875" y="0" dx="0em" dy="0.95em" style="text-anchor: middle; visibility: inherit; font-family: Roboto, sans-serif; font-size: 12px; font-weight: 200;" fill="rgb(255, 255, 255)" stroke="none" stroke-width="1px">8k</text><text x="164.625" y="0" dx="0em" dy="0.95em" style="text-anchor: middle; visibility: inherit; font-family: Roboto, sans-serif; font-size: 12px; font-weight: 200;" fill="rgb(255, 255, 255)" stroke="none" stroke-width="1px">10k</text><text x="192.0625" y="0" dx="0em" dy="0.95em" style="text-anchor: middle; visibility: inherit; font-family: Roboto, sans-serif; font-size: 12px; font-weight: 200;" fill="rgb(255, 255, 255)" stroke="none" stroke-width="1px">12k</text><text x="219.5" y="0" dx="0em" dy="0.95em" style="text-anchor: middle; visibility: inherit; font-family: Roboto, sans-serif; font-size: 12px; font-weight: 200;" fill="rgb(255, 255, 255)" stroke="none" stroke-width="1px">14k</text><text x="246.9375" y="0" dx="0em" dy="0.95em" style="text-anchor: middle; visibility: inherit; font-family: Roboto, sans-serif; font-size: 12px; font-weight: 200;" fill="rgb(255, 255, 255)" stroke="none" stroke-width="1px">16k</text><text x="274.375" y="0" dx="0em" dy="0.95em" style="text-anchor: middle; visibility: hidden; font-family: Roboto, sans-serif; font-size: 12px; font-weight: 200;" fill="rgb(255, 255, 255)" stroke="none" stroke-width="1px">18k</text></g><line x1="0" y1="0" x2="274.375" y2="0" fill="rgb(0, 0, 0)" stroke="rgb(204, 204, 204)" stroke-width="1px"></line></g></g></g></g></svg>