<svg viewBox="0 0 330 200" xmlns="http://www.w3.org/2000/svg"><g><g><g><g><g><line x1="55.625" y1="176" x2="50.625" y2="176" style="visibility: inherit;" fill="rgb(0, 0, 0)" stroke="rgb(204, 204, 204)" stroke-width="1px"></line><line x1="55.625" y1="153.99999999999994" x2="50.625" y2="153.99999999999994" style="visibility: inherit;" fill="rgb(0, 0, 0)" stroke="rgb(204, 204, 204)" stroke-width="1px"></line><line x1="55.625" y1="131.9999999999999" x2="50.625" y2="131.9999999999999" style="visibility: inherit;" fill="rgb(0, 0, 0)" stroke="rgb(204, 204, 204)" stroke-width="1px"></line><line x1="55.625" y1="109.9999999999998" x2="50.625" y2="109.9999999999998" style="visibility: inherit;" fill="rgb(0, 0, 0)" stroke="rgb(204, 204, 204)" stroke-width="1px"></line><line x1="55.625" y1="87.99999999999974" x2="50.625" y2="87.99999999999974" style="visibility: inherit;" fill="rgb(0, 0, 0)" stroke="rgb(204, 204, 204)" stroke-width="1px"></line><line x1="55.625" y1="65.99999999999969" x2="50.625" y2="65.99999999999969" style="visibility: inherit;" fill="rgb(0, 0, 0)" stroke="rgb(204, 204, 204)" stroke-width="1px"></line><line x1="55.625" y1="43.99999999999963" x2="50.625" y2="43.99999999999963" style="visibility: inherit;" fill="rgb(0, 0, 0)" stroke="rgb(204, 204, 204)" stroke-width="1px"></line><line x1="55.625" y1="21.99999999999957" x2="50.625" y2="21.99999999999957" style="visibility: inherit;" fill="rgb(0, 0, 0)" stroke="rgb(204, 204, 204)" stroke-width="1px"></line></g><g transform="translate(45.625, 0)"><text x="0" y="176" dx="0em" dy="0.3em" style="text-anchor: end; visibility: hidden; font-family: Roboto, sans-serif; font-size: 12px; font-weight: 200;" fill="rgb(255, 255, 255)" stroke="none" stroke-width="1px">0.965</text><text x="0" y="153.99999999999994" dx="0em" dy="0.3em" style="text-anchor: end; visibility: inherit; font-family: Roboto, sans-serif; font-size: 12px; font-weight: 200;" fill="rgb(255, 255, 255)" stroke="none" stroke-width="1px">0.97</text><text x="0" y="131.9999999999999" dx="0em" dy="0.3em" style="text-anchor: end; visibility: hidden; font-family: Roboto, sans-serif; font-size: 12px; font-weight: 200;" fill="rgb(255, 255, 255)" stroke="none" stroke-width="1px">0.975</text><text x="0" y="109.9999999999998" dx="0em" dy="0.3em" style="text-anchor: end; visibility: inherit; font-family: Roboto, sans-serif; font-size: 12px; font-weight: 200;" fill="rgb(255, 255, 255)" stroke="none" stroke-width="1px">0.98</text><text x="0" y="87.99999999999974" dx="0em" dy="0.3em" style="text-anchor: end; visibility: hidden; font-family: Roboto, sans-serif; font-size: 12px; font-weight: 200;" fill="rgb(255, 255, 255)" stroke="none" stroke-width="1px">0.985</text><text x="0" y="65.99999999999969" dx="0em" dy="0.3em" style="text-anchor: end; visibility: inherit; font-family: Roboto, sans-serif; font-size: 12px; font-weight: 200;" fill="rgb(255, 255, 255)" stroke="none" stroke-width="1px">0.99</text><text x="0" y="43.99999999999963" dx="0em" dy="0.3em" style="text-anchor: end; visibility: hidden; font-family: Roboto, sans-serif; font-size: 12px; font-weight: 200;" fill="rgb(255, 255, 255)" stroke="none" stroke-width="1px">0.995</text><text x="0" y="21.99999999999957" dx="0em" dy="0.3em" style="text-anchor: end; visibility: inherit; font-family: Roboto, sans-serif; font-size: 12px; font-weight: 200;" fill="rgb(255, 255, 255)" stroke="none" stroke-width="1px">1</text></g><line x1="55.625" y1="0" x2="55.625" y2="176" fill="rgb(0, 0, 0)" stroke="rgb(204, 204, 204)" stroke-width="1px"></line></g></g><g transform="translate(55, 0)" clip-path="url(#clip_0)"><clipPath id="clip_0"><rect width="274" height="176"></rect></clipPath><g><g><g><line x1="0" y1="0" x2="0" y2="176" fill="rgb(0, 0, 0)" stroke="rgb(189, 189, 189)" stroke-width="1px" opacity="0.25"></line><line x1="27.4375" y1="0" x2="27.4375" y2="176" fill="rgb(0, 0, 0)" stroke="rgb(189, 189, 189)" stroke-width="1px" opacity="0.25"></line><line x1="54.875" y1="0" x2="54.875" y2="176" fill="rgb(0, 0, 0)" stroke="rgb(189, 189, 189)" stroke-width="1px" opacity="0.25"></line><line x1="82.3125" y1="0" x2="82.3125" y2="176" fill="rgb(0, 0, 0)" stroke="rgb(189, 189, 189)" stroke-width="1px" opacity="0.25"></line><line x1="109.75" y1="0" x2="109.75" y2="176" fill="rgb(0, 0, 0)" stroke="rgb(189, 189, 189)" stroke-width="1px" opacity="0.25"></line><line x1="137.1875" y1="0" x2="137.1875" y2="176" fill="rgb(0, 0, 0)" stroke="rgb(189, 189, 189)" stroke-width="1px" opacity="0.25"></line><line x1="164.625" y1="0" x2="164.625" y2="176" fill="rgb(0, 0, 0)" stroke="rgb(189, 189, 189)" stroke-width="1px" opacity="0.25"></line><line x1="192.0625" y1="0" x2="192.0625" y2="176" fill="rgb(0, 0, 0)" stroke="rgb(189, 189, 189)" stroke-width="1px" opacity="0.25"></line><line x1="219.5" y1="0" x2="219.5" y2="176" fill="rgb(0, 0, 0)" stroke="rgb(189, 189, 189)" stroke-width="1px" opacity="0.25"></line><line x1="246.9375" y1="0" x2="246.9375" y2="176" fill="rgb(0, 0, 0)" stroke="rgb(189, 189, 189)" stroke-width="1px" opacity="0.25"></line><line x1="274.375" y1="0" x2="274.375" y2="176" fill="rgb(0, 0, 0)" stroke="rgb(189, 189, 189)" stroke-width="1px" opacity="0.25"></line></g><g><line x1="0" y1="176" x2="274.375" y2="176" fill="rgb(0, 0, 0)" stroke="rgb(189, 189, 189)" stroke-width="1px" opacity="0.25"></line><line x1="0" y1="153.99999999999994" x2="274.375" y2="153.99999999999994" fill="rgb(0, 0, 0)" stroke="rgb(189, 189, 189)" stroke-width="1px" opacity="0.25"></line><line x1="0" y1="131.9999999999999" x2="274.375" y2="131.9999999999999" fill="rgb(0, 0, 0)" stroke="rgb(189, 189, 189)" stroke-width="1px" opacity="0.25"></line><line x1="0" y1="109.9999999999998" x2="274.375" y2="109.9999999999998" fill="rgb(0, 0, 0)" stroke="rgb(189, 189, 189)" stroke-width="1px" opacity="0.25"></line><line x1="0" y1="87.99999999999974" x2="274.375" y2="87.99999999999974" fill="rgb(0, 0, 0)" stroke="rgb(189, 189, 189)" stroke-width="1px" opacity="0.25"></line><line x1="0" y1="65.99999999999969" x2="274.375" y2="65.99999999999969" fill="rgb(0, 0, 0)" stroke="rgb(189, 189, 189)" stroke-width="1px" opacity="0.25"></line><line x1="0" y1="43.99999999999963" x2="274.375" y2="43.99999999999963" fill="rgb(0, 0, 0)" stroke="rgb(189, 189, 189)" stroke-width="1px" opacity="0.25"></line><line x1="0" y1="21.99999999999957" x2="274.375" y2="21.99999999999957" fill="rgb(0, 0, 0)" stroke="rgb(189, 189, 189)" stroke-width="1px" opacity="0.25"></line></g></g></g><g><g><line x1="0" y1="4422.000000000008" x2="274.375" y2="4422.000000000008" fill="rgb(0, 0, 0)" stroke="rgb(153, 153, 153)" stroke-width="1.5px"></line></g></g><g><g><line x1="27.4375" y1="0" x2="27.4375" y2="176" fill="rgb(0, 0, 0)" stroke="rgb(153, 153, 153)" stroke-width="1.5px"></line></g></g><g><g><g><g><g><path stroke="rgb(255, 112, 67)" stroke-width="2px" d="M36.17634375,176.10924446207267L36.258656249999994,174.43022817265043L36.272375000000004,172.9225846243149L36.464437499999995,171.5685078289451L36.587906249999996,170.35210197466864L36.69765625,155.4112652837669L37.32871875,155.82275694740744L37.918625,156.19259912315184L38.069531250000004,156.52505260132992L38.1655625,156.8239336704566L38.247875,157.0926621259123L38.467375,143.53244880702977L39.19446875,131.33796961299055L39.317937500000006,134.16276923081807L39.592312500000006,122.91568736648642L40.3605625,126.58315907487851L41.14253125,116.1015894778536L41.36203125,120.45011313206363L41.458062500000004,124.36213175661976L41.5129375,127.88161066682481L41.663843750000005,117.27801523627633L41.924499999999995,107.73771572462991L42.130281249999996,99.15382358489398L42.212593749999996,105.19485146143872L42.500687500000005,96.86741357088198L42.65159375,89.37423179066637L42.67903125,82.63159281618184L42.87109375,76.56420943069003L42.967124999999996,84.86298832611293L43.22778125,78.57314251815974L43.241499999999995,72.91295555852716L43.406125,67.81933335877235L43.5433125,76.99117054972531L43.57075,85.24510735632813L43.6805,92.6730700552945L44.1469375,126.86601035505133L44.24296875,116.37658009357428L44.613375,120.68996915701865L44.6408125,110.81881564598399L44.681968749999996,101.93518731975016L44.73684375,93.94025376959219L44.81915625,86.74508243272567L44.87403125,80.26964599314319L45.2444375,74.44192957757113L45.614843750000006,69.19712766523297L45.889218750000005,64.4769216575903L46.30078125,73.98012323095986L46.3145,82.53283482218336L46.87696875,76.47909018175221L47.17878125,71.03080763143303L47.42571875,79.87827278920012L47.4394375,74.09012407535745L47.9333125,82.63153856735993L48.043062500000005,104.06934902540452L48.152812499999996,95.86208186178067L48.19396875,88.47560454642502L48.674125000000004,95.57827700155585L48.715281250000004,129.4714495792635L48.907343749999995,132.47438438348635L48.9485,121.42668184694699L49.01709375,111.48379974379749L49.181718749999995,130.03577899621183L49.33262499999999,119.23201282007278L49.757906250000005,109.50865903464741L49.867656249999996,128.25805779425247L50.347812499999996,131.38229170582787L50.55359375,134.1940946848695L50.786812499999996,136.72471125751596L50.81425,139.00226122503653L50.855406249999994,127.30193757742828L50.91028125,130.52176797396328L51.78828125,119.66951790704474L51.815718749999995,123.65259031906626L51.98034375,113.48727569552949L52.776031249999996,131.8386384491967L52.954375,134.6047868574649L53.05040625,123.34426327912459L53.48940625,126.95984992412234L53.5305625,130.2138754397588L53.612874999999995,119.39245644526153L53.626593750000005,123.40322129164966L53.997,113.26287529089026L54.051875,104.13656842581919L54.12046875,95.92289592109853L54.32625,88.53059364266203L54.339968750000004,81.87752400247466L54.58690625,75.88976327873343L55.83531249999999,70.50078020883248L55.95878125,65.65069672690787L56.09596875,61.28562263077473L56.246874999999996,57.35705678470964L56.50753125,67.57135949045524L57.5364375,63.0142201748331L57.74221875,58.91279543042261L58.15378125,55.2215136785701L58.222375,51.899360521576874L59.25128125,48.90942302021847L59.80003125,59.9684855424169L60.280187500000004,56.171635497528094L60.856375,66.50447559879036L60.92496875,62.05402662363822L61.1033125,58.04862281490374L61.2130625,81.94376668845543L61.25421875,75.94938862995164L61.52859375,70.55444864133311L61.77553125,65.69900286544467L61.96759375,61.3291018403795L61.995031250000004,57.396191058139166L62.1459375,81.35657523229749L62.790718749999996,89.17091867181352L62.8044375,96.20382758445578L63.09253124999999,88.78344408550089L63.47665625,82.10509907713896L63.58640625,76.09458868357729L63.69615625,84.43513042199167L64.1214375,78.19161697100049L64.21746875000001,72.57245494277846L64.258625,95.0152106387423L64.38209375,101.46368988266101L64.587875,93.51732055303529L64.71134375,86.36558822122942L64.9445625,79.92902917514007L65.01315625,74.13612607621315L65.02687499999999,68.92251332164722L65.20521875,64.23026187045815L65.2189375,60.00723558700168L65.23265624999999,83.70651251524343L65.36984375,91.28586140387686L65.411,98.10727537701705L65.64421875,90.49654772531717L66.014625,83.64689286044735L66.3164375,91.23220366643267L66.453625,84.30898322419178L66.68684375,78.07808484053933L66.7005625,72.47027630688603L67.50996875,81.17324874547481L67.93525,89.0059239270426L67.97640625,96.05533157979136L68.07243749999999,88.64979837883806L68.22334375,81.98481850614512L69.0601875,89.73633669196626L69.23853125000001,82.96270299411452L69.73240625,90.61643272384359L69.74612499999999,83.75478942794727L70.00678125,77.57931046610747L70.0205,85.77137944223459L70.03421875,106.8942415507756L70.22628125,98.40481737661213L70.24,104.51433565131312L70.25371875,137.5129021462738L70.34975,125.96161191271419L70.58296874999999,115.56545070610848L70.96709375,106.208905623076L71.22775,97.78801505070764L71.32378125000001,103.95921355227277L71.57071875000001,95.76329218911366L71.611875,88.38696296377768L71.89996875,81.74826666219575L72.22921875,75.77343999176117L72.270375,97.89609600663192L72.7916875,117.80648641734678L73.258125,108.22583777068475L73.47762499999999,99.60325398962466L73.7245625,105.59292859315781L73.87546875,97.23363573070759L74.13612499999999,89.71027215509797L74.3281875,110.43924494588319L74.91809375,115.34532045263619L75.21990625000001,119.76078840845891L75.233625,109.98470956544858L75.32965625,101.18623860715117L75.35709375,93.26761474501603L75.453125,99.89085327158382L75.80981249999999,92.10176794329361L76.35856249999999,98.84159114984503L76.39971874999999,91.15743203395662L76.49575,84.24168882982886L76.660375,78.01751994625315L76.825,72.41576795114719L77.00334375,81.12419115670517L77.0170625,75.21177204062397L77.0445,69.89059483622825L77.5658125,65.10153535233582L77.60696875,74.541381817581L77.63440625,83.0372436362105L77.66184375,76.9335192723386L77.703,98.94016734591695L77.757875,104.99615061152679L77.79903125000001,110.44653555053713L78.0596875,101.60188199524539L78.3615,93.641693795528L78.43009375,86.47752441581893L79.03371874999999,93.77977197438025L79.32181250000001,100.351794777059L80.22725,92.51661529922845L80.25468749999999,85.46495376920473L80.51534375,79.11845839220256L80.96806249999999,73.4066125529163L81.09153124999999,68.26595129757159L81.14640625,104.88935616815806L81.22871875,96.60042055127242L81.39334375000001,89.14037849608846L81.4345,96.176340646528L81.8460625,102.50870658191442L81.96953125,94.45783592367789L82.05184374999999,87.2120523312743L82.477125,94.44084709817919L82.5045625,87.19676238833196L82.62803124999999,108.1770861495749L82.77893750000001,99.55937753458947L82.86125,91.80343978110751L82.95728125000001,84.82309580297816L83.464875,78.54078622266488L83.80784375,72.88670760038656L83.89015625,67.79803684033806L83.97246874999999,76.96823315632106L84.013625,85.22140984070174L84.3154375,78.89926885662256L84.79559375,73.20934197095302L84.9465,68.08840777385225L85.42665625000001,63.47956699646161L85.72846875,59.331610296811895L85.83821875000001,55.59844926712777L86.67506250000001,52.238604340412216L86.81225,49.21474390636901L86.89456249999999,46.49326951573024L87.73140624999999,57.793942564163665L88.38990625,67.96454830775237L88.5408125,77.11809347698124L88.70543749999999,71.60628412928074L89.51484375,66.64565571635144L89.65203125,62.18109014471465L89.70690625,58.16298113024188L90.049875,54.546683017216466L90.10475000000001,51.29201471549415L90.1870625,48.36281324394426L90.66721875,59.47653191955221L90.708375,55.728878727595806L91.21596875,52.355990854836385L91.35315625000001,49.32039176935247L91.7235625,46.58835259241606L91.77843750000001,44.12951733317464L91.805875,41.916565599856646L91.88818749999999,39.924909039870506L92.01165625,38.13241813588356L92.32718750000001,36.519176322295166L92.42321874999999,48.81725869006651L92.72503124999999,46.135532821059655L92.903375,43.72197953895326L92.95824999999999,55.299781585058405L92.97196875,51.969803426552915L93.38353124999999,48.9728230838972L93.69906250000001,46.275540775507274L93.7265,57.59798669795713L93.76765625,54.038188028161656L93.781375,50.834369225345064L93.891125,61.70093230281147L94.41243750000001,57.730839072529946L94.59078125,54.157755165276555L94.7965625,50.941979648749054L95.05721874999999,61.797781683874426L95.208125,57.81800351548714L95.33159375,54.23620316393852L95.756875,64.76258284754505L95.90778125000001,60.48632456279036L96.34678125,56.63769210651132L96.67603125,53.173922895860144L96.9366875,63.8065306062748L97.11503125,87.12587754564723L97.12875,80.61328979108266L97.2385,74.7519608119744L97.26593749999999,69.47676473077654L97.842125,64.72908825769868L97.897,101.70617943192954L97.951875,107.485561488737L98.10278124999999,112.68700533986367L98.1439375,103.61830480587712L98.15765625,95.45647432528912L98.59665625,88.11082689276012L98.7475625,81.49974420348435L98.77499999999999,75.54976978313573L98.84359375000001,70.19479280482247L99.02193749999999,65.37531352434021L99.11796875,74.78778217190603L99.2963125,69.5090039547155L99.50209374999999,64.75810355924379L99.6255625,60.48229320331962L99.66671875,56.634063882987604L100.07828125,53.17065749468895L100.40753125,50.05359174522007L100.44868749999999,47.24823257069773L100.47612500000001,58.47340931362853L100.531,54.82606838226528L100.6133125,51.543461544039204L100.99743749999999,76.089115389635L101.1071875,70.6802038506718L101.42271874999999,65.81218346560428L101.55990625,75.18096511904373L102.13609375,69.86286860713986L102.25956249999999,65.07658174642573L102.32815625,74.51892357178313L102.9455,69.2670312146047L103.01409375,64.54032809314388L103.17871875,60.2862952838297L103.80978125,56.45766575544663L105.18165625,53.011899179901974L106.04593750000001,49.91070926191164L106.4300625,60.86963833572046L106.74559375,70.73267450214864L107.44525,65.85940705193367L107.9116875,88.97346634673997L108.09003125000001,82.27611971206595L109.03662499999999,76.24850774085905L109.14637499999999,70.82365696677307L109.256125,65.9412912700961L109.48934375,61.54716214308665L109.70884375,57.59244592877775L109.87346874999999,67.78320133590006L110.36734375,63.204881202309856L110.47709375000001,59.08439308207878L110.82006249999999,69.12595377387123L110.83378124999999,64.41335839648386L111.27278125000001,60.172022556835344L111.30021875,70.10482030115185L111.57459375,65.29433827103651L111.6431875,74.714904443933L111.67062499999999,83.19341399953973L111.6980625,77.07407259958595L112.05475,71.56666533962742L112.83671875,66.60999880566452L113.08365625,62.148998925098184L113.57753124999999,71.8840990325886L113.60496875,66.89568912932978L113.865625,62.40612021639696L114.304625,72.11550819475754L114.3320625,67.10395737528188L114.6613125,62.59356163775361L114.67503125,58.53420547397821L114.74362500000001,54.88078492658058L114.81221875,51.59270643392234L115.3198125,48.633435790530264L115.56675,45.97009221147713L115.82740625000001,43.573082990329524L116.04690624999999,55.165774691296896L116.23896875000001,51.84919722216722L116.48590625,48.86427749995056L116.5270625,46.17784974995559L116.9935,43.76006477495989L117.03465625,55.334058297464324L117.2404375,52.000652467717956L117.30903124999999,62.750587220946336L117.487375,72.42552849885197L117.55596875,67.38297564896665L117.77546875,62.84467808406993L117.84406249999999,58.7602102756631L117.91265625000001,55.084189248096976L117.96753125,65.5257703232875L118.18703125,61.17319329095896L118.65346875,57.25587396186323L118.98271874999999,53.73028656567685L119.6275,50.557257909109374L119.7646875,61.451532118198564L119.81956249999999,57.50637890637863L120.0390625,53.955741015740706L120.18996875,64.51016691416672L120.51921875,60.25915022275011L120.7524375,70.18323520047548L121.01309375,65.36491168042782L121.3011875,61.0284205123852L121.4109375,57.125578461146794L121.53440625,53.613020615031914L121.75390625,50.45171855352849L122.316375,47.6065466981758L122.35753125000001,45.04589202835801L122.5084375,42.74130282552208L122.60446875000001,40.66717254296973L123.12578124999999,38.800455288672964L123.34528125,37.120409759805625L123.41387499999999,35.60836878382491L123.44131250000001,34.24753190544238L123.7156875,46.77277871489843L123.86659375,44.29550084340853L124.072375,42.06595075906788L124.2095625,40.0593556831612L125.07384375,52.00342011484521L125.11500000000001,49.00307810336089L125.1973125,46.3027702930248L125.718625,43.872493263722525L125.9106875,55.43524393735049L125.938125,52.09171954361565L126.30853125,62.83254758925441L126.55546875,58.74929283032888L126.93959375,68.82436354729617L127.2276875,77.89192719256654L127.694125,72.30273447331008L128.0508125,67.27246102597897L128.1056875,76.49521492338121L128.31146875,71.0456934310431L128.50353125,79.89112408793918L128.75046875,74.10201167914505L129.2855,68.89181051123062L129.43640625,64.2026294601074L129.45012499999999,73.73236651409694L129.83425,82.30912986268753L129.889125,76.27821687641867L129.9165625,84.60039518877689L130.0811875,78.34035566989937L130.4104375,72.70632010290923L130.5750625,67.63568809261842L130.6848125,63.07211928335653L130.767125,58.96490735502098L130.91803125,55.26841661951907L131.02778125,51.941574957567184L131.05521875,48.94741746181067L131.60396875,46.2526757156294L131.7274375,43.82740814406637L131.754875,55.39466732966011L131.79603125,52.055200596694206L132.2213125,62.79968053702477L132.303625,58.719712483322155L132.523125,55.04774123499013L133.44228125,65.49296711149125L133.4834375,61.14367040034228L133.840125,57.229303360308165L133.90871875,53.7063730242772L134.3614375,50.535735721849534L134.37515625,61.43216214966481L134.73184375,57.488945934698535L134.9650625,53.94005134122853L135.0199375,50.746046207105884L135.1296875,47.871441586395456L135.19828125,45.2842974277558L135.21200000000002,56.70586768498055L135.2943125,53.23528091648241L135.56868749999998,50.11175282483428L135.74703125000002,47.30057754235101L135.82934375,58.52051978811608L136.1723125,54.86846780930442L136.21346875,51.58162102837399L136.9954375,48.62345892553655L137.62650000000002,45.961113032982794L137.81856249999998,43.565001729684326L137.9283125,55.15850155671612L138.24384375,51.84265140104457L138.2575625,48.85838626093998L138.5045,46.17254763484587L138.8611875,43.75529287136105L139.16299999999998,41.579763584224764L139.42365625,39.62178722580244L139.437375,37.859608503222105L139.82150000000001,36.27364765290005L140.15075000000002,34.84628288761004L140.32909375,33.56165459884909L140.68578125000002,46.1554891389646L140.98759375,43.739940225068295L141.06990625,41.56594620256148L141.17965625,53.3593515823057L141.24825,63.97341642407531L141.97534374999998,59.776074781667695L142.01649999999998,55.99846730350092L142.16740625,52.59862057315089L142.35946875000002,49.53875851583557L142.63384375,46.784882664252166L142.82590624999997,44.3063943978267L142.89450000000002,83.32575495804402L143.45696875000002,77.19317946223975L143.92340625,71.6738615160156L144.10175,80.45647536441447L144.33496875,74.61082782797322L144.4584375,83.09974504517632L144.705375,76.98977054065858L144.78768749999998,71.49079348659285L144.91115625,66.54171413793331L145.5010625,62.08754272413975L145.66568750000002,71.828788451726L145.693125,66.84590960655335L145.78915625,62.36131864589803L146.22815625,58.32518678130814L146.28303125,54.69266810317742L146.70831249999998,65.17340129286005L146.790625,60.85606116357425L147.0375625,70.72045504721696L147.119875,79.59840954249565L147.504,73.83856858824603L147.53143749999998,68.65471172942144L147.83325,63.989240556479196L147.8606875,73.54031650083131L147.997875,68.38628485074834L148.14878125,63.74765636567331L148.47803125000002,73.322890729106L148.61521875,68.19060165619537L149.05421875,63.57154149057578L149.1228125,59.41438734151812L149.21884375,69.4229486073665L149.36975,78.43065374662987L149.45206249999998,72.78758837196665L149.76759374999997,95.20882953477003L149.82246875,87.88794658129294L150.70046875,81.29915192316346L150.7690625,102.86923673084722L150.9885625,94.78231305776225L151.35896875,87.50408175198604L151.57846875,80.95367357678745L151.70193749999999,88.80830621910867L151.8665625,95.87747559719779L152.51134374999998,88.48972803747803L152.56621875000002,95.59075523373063L152.9915,101.98167971035775L153.5128125,107.73351173932237L153.69115625,112.91016056539016L153.814625,103.81914450885114L153.95181250000002,95.63723005796598L154.0066875,102.02350705216966L154.363375,94.02115634695285L154.89840625,100.56904071225783L155.06303125000002,92.71213664103226L155.09046875,99.39092297692915L155.1865,91.65183067923626L155.39228125,84.68664761131272L155.51575,78.41798285018167L155.63921875,72.77618456516359L155.73525,67.69856610864716L155.83128125,90.62870949778254L155.91359375000002,83.76583854800444L155.9273125,77.58925469320404L156.009625,72.0303292238838L156.07821875,67.02729630149531L156.21540625,62.524566671345944L156.64068749999998,58.472110004211316L156.95621874999998,68.57489900379022L156.98365625000002,63.917409103411046L157.162,59.72566819306995L157.3815,55.953101373763005L157.601,52.55779123638652L157.61471875,49.50201211274768L157.6284375,46.75181090147312L158.2869375,71.77662981132596L158.41040625,66.79896683019336L158.533875,62.31907014717389L158.6710625,58.28716313245666L159.04146875,54.658446819210894L159.15121875,51.39260213729001L159.23353125,62.20334192356123L159.41187499999998,58.18300773120522L160.11153125,54.56470695808445L160.12525,65.05823626227624L160.16640625,60.752412636048476L160.39962500000001,56.87717137244338L160.56425000000002,53.38945423519915L160.674,50.25050881167915L161.00325,47.42545793051139L161.0306875,58.63291213746068L161.23646875,54.96962092371446L161.2501875,65.42265883134334L161.497125,61.08039294820887L161.71662500000002,57.172353653387844L162.05959375,53.65511828804911L162.2105,50.48960645924431L162.38884375,47.640645813319935L162.56718750000002,45.07658123198793L162.80040625,56.51892310878922L162.8964375,53.067030797910164L163.1708125,49.96032771811901L163.308,47.164294946306924L163.472625,44.647865451676374L163.48634375,56.133078906509056L163.91162500000002,66.46977101585823L163.92534375,62.02279391427237L163.9390625,58.020514522845296L164.07625,54.41846307056052L164.25459375,51.17661676350448L164.33690625,48.25895508715404L164.44665625000002,59.38305957843862L164.52896875000002,55.6447536205949L165.48928124999998,52.28027825853562L165.8596875,49.25225043268192L166.28496875,46.527025389413524L166.35356249999998,44.07432285047194L166.5181875,55.616890565424725L167.21784375000001,52.25520150888202L167.24528125,49.22968135799378L167.47850000000003,46.50671322219429L167.57453125,57.806041899974964L167.71171875,54.225437709977214L168.31534375,51.00289393897951L168.46625,48.10260454508147L168.68575,45.49234409057327L169.3168125,43.143109681516144L169.35796875,41.028798713364345L169.37168749999998,39.12591884202777L170.04390625000002,51.16332695782503L170.72984375,48.246994262042584L170.81215625000002,45.62229483583832L170.82587500000002,43.26006535225425L170.9081875,41.13405881702889L171.49809375,39.22065293532601L171.7313125,37.49858764179351L172.18403125,35.9487288776141L172.32121874999999,34.55385598985285L172.48584375000002,33.29847039086752L172.59559375,32.16862335178058L172.801375,31.151761016602435L173.0483125,43.98658491494246L173.30896875000002,41.787926423448276L173.44615625,39.809133781103455L173.47359375,38.02822040299322L174.32415625,36.425398362693905L174.46134375,34.9828585264247L174.557375,33.68457267378219L174.62596875,46.26611540640434L174.84546875,43.83950386576382L174.9415,41.655553479187446L175.11984375,39.68999813126847L175.20215624999997,37.920998318141386L176.1761875,50.078898486327326L176.93071875,47.27100863769441L176.98559375,44.74390777392511L178.0145,42.469516996532505L178.6455625,40.42256529687912L178.65928125,38.58030876719097L178.72787499999998,36.92227789047203L178.837625,49.18005010142515L179.08456249999998,60.21204509128267L179.6333125,56.39084058215454L179.96256250000002,52.951756523939295L180.044875,49.856580871545574L180.05859375,47.07092278439107L180.16834375,44.56383050595186L180.52503125,56.05744745535675L180.6759375,52.65170270982119L181.19725,77.08653243883887L181.25212499999998,71.5778791949552L181.3344375,80.37009127545967L181.43046875,74.5330821479135L181.4441875,69.27977393312221L181.6088125,64.55179653980994L181.85574999999997,74.04661688582932L182.239875,82.59195519724642L182.39078124999997,76.53275967752178L182.8709375,71.07948370976942L182.88465625,66.17153533879228L182.99440625000003,75.50438180491304L183.337375,70.15394362442184L183.74893749999998,65.33854926197951L183.886125,61.00469433578162L183.95471874999998,57.10422490220338L184.42115625,53.59380241198318L184.48975,50.43442217078487L184.5171875,47.5909799537063L184.62693750000003,45.03188195833542L184.66809375,56.47869376250215L184.69553125000002,53.03082438625185L185.0659375,49.92774194762682L185.24428125,47.13496775286391L185.5598125,44.6214709775777L185.57353125,42.3593238798197L185.971375,40.32339149183794L186.1634375,38.4910523426543L186.27318749999998,36.84194710838907L186.72590625,49.10775239755019L187.16490625,46.39697715779522L187.892,43.95727944201585L188.12521875,41.761551497814274L188.44074999999998,53.53539634803327L188.6328125,50.38185671322971L188.715125,47.54367104190665L188.83859375,44.98930393771617L189.09925,42.690373543944375L189.1266875,40.62133618954989L189.55196875,38.759202570594724L189.57940624999998,37.083282313535406L189.63428125000002,35.574954082181755L189.812625,47.96745867396358L189.92237500000002,45.37071280656736L189.96353125000002,43.03364152591044L190.01840625,40.9302773733195L190.23790625,39.037249635987415L190.36137499999998,37.33352467238883L190.4436875,35.800172205149984L190.95128125,34.42015498463495L191.019875,60.678139486171276L191.25309374999998,56.810325537554235L191.44515625,53.32929298379892L191.458875,50.196363685418895L191.6509375,47.376727316876774L191.678375,44.83905458518919L191.74696874999998,42.55514912667028L191.99390625,40.49963421400346L192.227125,52.39967079260333L192.43290625,49.35970371334292L192.84446875,46.623733342008585L192.92678125,44.16136000780767L192.995375,41.945224007026816L193.105125,39.95070160632429L193.91453125,38.155631445692016L194.20262499999998,36.54006830112263L194.36725,48.836061471010346L194.46328125,46.15245532390916L194.51815625,71.23720979151807L194.94343750000002,80.06348881236624L195.28640625,74.25713993112981L195.3275625,69.0314259380167L195.43731250000002,64.32828334421512L195.6568125,60.09545500979348L195.78028125,70.03590950881456L196.20556249999998,65.23231855793296L196.23299999999998,60.90908670213987L196.287875,57.018178031926084L196.397625,53.516360228733326L196.41134375,50.36472420585981L196.79546875000003,47.52825178527399L196.9189375,58.725426606746716L196.98753125,55.052883946072136L197.08356250000003,51.74759555146498L197.1384375,48.77283599631835L197.4676875,46.09555239668656L197.5225625,43.685997157017766L197.54999999999998,41.51739744131609L197.83809374999998,39.56565769718464L197.8518125,37.809091927466184L197.86553124999998,36.22818273471961L198.05759375,34.805364461247706L198.13990625,33.52482801512299L198.22221875,32.37234521361084L198.592625,45.085110692249884L198.6200625,42.776599623025106L198.64749999999998,40.69893966072246L199.22368749999998,38.82904569465037L199.6626875,37.14614112518534L200.30746875,35.6315270126666L200.8699375,34.268374311399896L200.95225000000002,33.04153688025992L201.02084375,31.937383192233884L201.37753125,44.69364487301072L201.77537500000003,42.42428038570941L202.03603124999998,54.13185234713845L202.7905625,50.918667112424615L202.91403125000002,48.026800401182264L203.68228125,45.424120361064084L203.8331875,43.08170832495753L204.42309375,40.973537492461745L204.47796875,66.57618374321562L204.7111875,62.11856536889407L205.013,58.10670883200458L205.39712500000002,54.496037948804165L205.452,51.246434153923616L205.4794375,48.32179073853116L205.52059375,45.68961166467819L205.74009375,43.32065049821038L205.91843749999998,41.188585448389446L206.0281875,39.26972690355032L206.1105,37.54275421319505L206.16537499999998,35.988478791875536L206.275125,34.58963091268809L206.28884375,33.33066782141924L206.42603125,32.19760103927737L206.43974999999998,31.177840935349693L206.9885,30.26005684181478L207.04337500000003,29.43405115763326L208.36037499999998,28.69064604186994L208.6621875,41.771581437682926L208.89540624999998,53.54442329391481L208.99143750000002,50.38998096452319L209.11490625,47.55098286807079L209.2109375,44.995884581263454L209.36184375,42.696296123137266L209.82828125,40.626666510823554L209.95175,38.76399985974096L210.56909374999998,37.08759987376688L211.10412499999998,35.578839886389986L211.5156875,34.2209558977508L212.02328125000003,32.998860307975576L212.9424375,31.898974277178176L213.06590624999998,30.90907684946022L213.079625,30.018169164514156L213.3265625,29.216352248062552L213.4363125,42.24471702325662L213.68325000000002,40.22024532093077L213.847875,52.14822078883802L213.90275,49.13339870995418L214.32803125,60.17005883895904L214.5886875,70.10305295506316L214.616125,65.2927476595566L214.6435625,60.96347289360081L214.65728125,57.067125604240836L214.83562500000002,53.56041304381694L215.4118125,64.15437173943558L215.60387500000002,59.938934565492225L215.87825,56.14504110894295L216.19378125,52.73053699804847L216.49559375,49.657483298243584L216.7836875,60.64173496841921L217.18153125,56.77756147157719L217.42846875,53.29980532441923L217.7714375,50.16982479197708L217.9909375,61.1028423127795L218.347625,70.94255808150187L218.53968749999999,66.04830227335168L219.10215625,61.643472046016285L219.225625,57.67912484141443L219.5823125,54.111212357273175L219.98015625,50.90009112154582L220.1310625,48.0100820093914L220.8993125,45.40907380845239L221.05021875,43.06816642760721L221.091375,40.961349784846256L221.24228125,39.06521480636184L221.32459375,51.10869332572592L221.420625,48.19782399315354L221.66756249999997,45.57804159383808L221.92821874999998,70.72023743445445L221.98309375000002,65.8482136910091L222.079125,61.463392321908145L222.1614375,57.51705308971749L222.3260625,53.96534778074554L222.47696875,50.76881300267085L222.55928125,47.89193170240363L222.573,45.30273853216346L223.0394375,42.97246467894688L223.13546875,40.8752182110521L224.17809375000002,38.98769638994705L224.28784375,37.2889267509524L224.3564375,35.76003407585705L224.45246875,48.134030668271784L224.5210625,45.52062760144445L224.53478125,43.16856484129977L224.64453125,41.05170835716966L224.822875,39.14653752145275L224.97378125,37.43188376930758L224.98749999999998,35.88869539237682L225.05609375,34.49982585313919L225.24815625,46.99984326782537L225.35790625,44.49985894104297L225.371625,42.24987304693853L225.48137499999999,40.224885742244645L226.2770625,38.402397168020286L226.3045,50.51215745121863L226.83953125,47.66094170609692L226.85325,45.094847535487126L227.017875,42.785362781938375L227.41571875,40.706826503744495L228.04678125,38.83614385337001L228.34859375000002,37.152529468033215L229.4049375,35.63727652122998L229.597,34.27354886910685L229.72046875,46.7961939821966L229.92624999999998,44.31657458397707L230.15946875,42.08491712557952L230.26921875000002,40.07642541302178L230.6121875,38.26878287171937L230.73565625,36.64190458454753L231.02374999999998,35.17771412609282L231.17465625,33.8599427134836L231.35299999999998,32.6739484421352L231.40787500000002,31.606553597921586L231.83315625,30.645898238129433L231.90175,29.781308414316648L231.98406250000002,29.003177572884745L232.13496874999998,28.302859815596474L232.18984375,27.672573834036932L232.395625,27.105316450633246L232.58768750000002,26.59478480556993L232.98553124999998,26.135306325012944L233.47940624999998,39.47177569251207L234.11046875,37.72459812326082L234.12418749999998,36.15213831093468L234.17906250000001,34.73692447984142L234.5631875,47.213232031857416L234.7278125,44.69190882867177L234.865,69.92271794580432L234.919875,65.13044615122364L235.1119375,60.817401536101144L235.31771875,56.93566138249088L235.63325,67.19209524424181L235.75671874999998,62.67288571981784L235.94878125,58.60559714783602L236.05853125,54.94503743305246L237.5813125,51.650533689747135L237.8008125,48.685480320772186L237.992875,46.01693228869491L238.1849375,57.36523905982576L238.30840625000002,53.828715153842985L238.70625,50.6458436384588L238.84343750000002,47.78125927461293L238.96690625,45.20313334715173L239.18640625,42.88282001243656L239.26871875,40.79453801119291L239.4745,38.91508421007378L239.5568125,37.22357578906651L239.57053125,35.70121821015985L239.94093750000002,34.331096389143724L239.968375,33.09798675022912L240.078125,45.73818807520648L240.47596875,57.11436926768612L241.5871875,53.60293234091765L241.90271875000002,50.4426391068257L241.9713125,47.598375196142946L242.38287499999998,45.0385376765284L242.821875,42.73468390887557L242.9865,40.66121551798817L243.1236875,38.79509396618926L243.49409375,37.115584569570345L243.645,35.604026112613255L243.96053125,34.24362350135174L244.05656249999998,33.019261151216575L244.09771875,31.91733503609512L244.20746875,30.925601532485615L244.2760625,30.033041379236916L244.38581250000001,29.22973724131343L244.46812500000001,42.256763517182165L244.61903124999998,40.231087165463805L245.19521875,38.40797844891729L245.22265625,36.76718060402572L245.85371875,35.290462543623285L245.8674375,33.96141628926072L246.1966875,32.765274660334555L246.4161875,31.688747194300962L246.663125,30.71987247487097L247.11584374999998,29.847885227384076L247.3765,29.06309670464543L247.5136875,42.10678703418126L247.98012500000002,40.096108330763194L248.37796875,38.28649749768708L248.419125,50.407847747918495L248.54259375,47.56706297312641L248.65234375,58.7603566758139L248.99531249999998,68.83432100823259L249.47546875,64.15088890740928L249.48918749999999,59.935800016668125L250.175125,56.14222001500121L250.21628125,66.4779980135014L250.24371875,62.030198212151284L250.32603125,58.02717839093592L251.23146874999998,54.42446055184252L251.65675000000002,51.182014496658475L251.6841875,48.2638130469924L252.31525,45.637431742293344L252.35640625,43.273688568063875L252.57590625,41.1463197112575L252.58962499999998,52.981687740131775L252.6170625,49.88351896611861L252.79540625,47.095167069506616L253.57737500000002,58.33565036255613L253.61853125,54.70208532630046L254.5376875,51.431876793670526L255.20990625000002,48.48868911430358L255.23734375,45.83982020287321L255.37453125,43.45583818258566L255.8546875,41.31025436432711L255.97815624999998,39.37922892789455L256.101625,51.391306035105316L256.96590625,48.452175431594796L257.02078124999997,45.806957888435505L257.81646875,43.426262099592165L258.132,41.283635889632805L258.3789375,39.35527230066958L258.7905,37.61974507060278L258.8179375,36.05777056354259L258.99628125,89.65199350718825" style="fill: none;" fill="none"></path></g></g></g></g><g opacity="0.2"><g><g><g><path stroke="rgb(255, 112, 67)" stroke-width="2px" d="M28.85053125,709.5000000000009L28.90540625,159.49999999999983L29.1935,21.99999999999957L29.6325,434.50000000000034L29.797125,297.00000000000006L30.057781249999998,159.49999999999983L30.22240625,21.99999999999957L30.57909375,297.00000000000006L30.784875,159.49999999999983L30.990656249999997,297.00000000000006L31.772625,297.00000000000006L31.813781249999998,159.49999999999983L32.1841875,21.99999999999957L32.3488125,297.00000000000006L32.4585625,434.50000000000034L32.7329375,21.99999999999957L32.9524375,434.50000000000034L33.13078125,297.00000000000006L33.43259375,21.99999999999957L33.5560625,159.49999999999983L33.761843750000004,159.49999999999983L33.81671875,297.00000000000006L33.95390625,21.99999999999957L34.036218749999996,159.49999999999983L34.4340625,21.99999999999957L34.74959375,21.99999999999957L34.8181875,434.50000000000034L34.845625,159.49999999999983L35.065125,159.49999999999983L35.147437499999995,21.99999999999957L35.5864375,297.00000000000006L35.613875,159.49999999999983L36.17634375,21.99999999999957L36.258656249999994,159.49999999999983L36.272375000000004,159.49999999999983L36.464437499999995,159.49999999999983L36.587906249999996,159.49999999999983L36.69765625,21.99999999999957L37.32871875,159.49999999999983L37.918625,159.49999999999983L38.069531250000004,159.49999999999983L38.1655625,159.49999999999983L38.247875,159.49999999999983L38.467375,21.99999999999957L39.19446875,21.99999999999957L39.317937500000006,159.49999999999983L39.592312500000006,21.99999999999957L40.3605625,159.49999999999983L41.14253125,21.99999999999957L41.36203125,159.49999999999983L41.458062500000004,159.49999999999983L41.5129375,159.49999999999983L41.663843750000005,21.99999999999957L41.924499999999995,21.99999999999957L42.130281249999996,21.99999999999957L42.212593749999996,159.49999999999983L42.500687500000005,21.99999999999957L42.65159375,21.99999999999957L42.67903125,21.99999999999957L42.87109375,21.99999999999957L42.967124999999996,159.49999999999983L43.22778125,21.99999999999957L43.241499999999995,21.99999999999957L43.406125,21.99999999999957L43.5433125,159.49999999999983L43.57075,159.49999999999983L43.6805,159.49999999999983L44.1469375,434.50000000000034L44.24296875,21.99999999999957L44.613375,159.49999999999983L44.6408125,21.99999999999957L44.681968749999996,21.99999999999957L44.73684375,21.99999999999957L44.81915625,21.99999999999957L44.87403125,21.99999999999957L45.2444375,21.99999999999957L45.614843750000006,21.99999999999957L45.889218750000005,21.99999999999957L46.30078125,159.49999999999983L46.3145,159.49999999999983L46.87696875,21.99999999999957L47.17878125,21.99999999999957L47.42571875,159.49999999999983L47.4394375,21.99999999999957L47.9333125,159.49999999999983L48.043062500000005,297.00000000000006L48.152812499999996,21.99999999999957L48.19396875,21.99999999999957L48.674125000000004,159.49999999999983L48.715281250000004,434.50000000000034L48.907343749999995,159.49999999999983L48.9485,21.99999999999957L49.01709375,21.99999999999957L49.181718749999995,297.00000000000006L49.33262499999999,21.99999999999957L49.757906250000005,21.99999999999957L49.867656249999996,297.00000000000006L50.347812499999996,159.49999999999983L50.55359375,159.49999999999983L50.786812499999996,159.49999999999983L50.81425,159.49999999999983L50.855406249999994,21.99999999999957L50.91028125,159.49999999999983L51.78828125,21.99999999999957L51.815718749999995,159.49999999999983L51.98034375,21.99999999999957L52.776031249999996,297.00000000000006L52.954375,159.49999999999983L53.05040625,21.99999999999957L53.48940625,159.49999999999983L53.5305625,159.49999999999983L53.612874999999995,21.99999999999957L53.626593750000005,159.49999999999983L53.997,21.99999999999957L54.051875,21.99999999999957L54.12046875,21.99999999999957L54.32625,21.99999999999957L54.339968750000004,21.99999999999957L54.58690625,21.99999999999957L55.83531249999999,21.99999999999957L55.95878125,21.99999999999957L56.09596875,21.99999999999957L56.246874999999996,21.99999999999957L56.50753125,159.49999999999983L57.5364375,21.99999999999957L57.74221875,21.99999999999957L58.15378125,21.99999999999957L58.222375,21.99999999999957L59.25128125,21.99999999999957L59.80003125,159.49999999999983L60.280187500000004,21.99999999999957L60.856375,159.49999999999983L60.92496875,21.99999999999957L61.1033125,21.99999999999957L61.2130625,297.00000000000006L61.25421875,21.99999999999957L61.52859375,21.99999999999957L61.77553125,21.99999999999957L61.96759375,21.99999999999957L61.995031250000004,21.99999999999957L62.1459375,297.00000000000006L62.790718749999996,159.49999999999983L62.8044375,159.49999999999983L63.09253124999999,21.99999999999957L63.47665625,21.99999999999957L63.58640625,21.99999999999957L63.69615625,159.49999999999983L64.1214375,21.99999999999957L64.21746875000001,21.99999999999957L64.258625,297.00000000000006L64.38209375,159.49999999999983L64.587875,21.99999999999957L64.71134375,21.99999999999957L64.9445625,21.99999999999957L65.01315625,21.99999999999957L65.02687499999999,21.99999999999957L65.20521875,21.99999999999957L65.2189375,21.99999999999957L65.23265624999999,297.00000000000006L65.36984375,159.49999999999983L65.411,159.49999999999983L65.64421875,21.99999999999957L66.014625,21.99999999999957L66.3164375,159.49999999999983L66.453625,21.99999999999957L66.68684375,21.99999999999957L66.7005625,21.99999999999957L67.50996875,159.49999999999983L67.93525,159.49999999999983L67.97640625,159.49999999999983L68.07243749999999,21.99999999999957L68.22334375,21.99999999999957L69.0601875,159.49999999999983L69.23853125000001,21.99999999999957L69.73240625,159.49999999999983L69.74612499999999,21.99999999999957L70.00678125,21.99999999999957L70.0205,159.49999999999983L70.03421875,297.00000000000006L70.22628125,21.99999999999957L70.24,159.49999999999983L70.25371875,434.50000000000034L70.34975,21.99999999999957L70.58296874999999,21.99999999999957L70.96709375,21.99999999999957L71.22775,21.99999999999957L71.32378125000001,159.49999999999983L71.57071875000001,21.99999999999957L71.611875,21.99999999999957L71.89996875,21.99999999999957L72.22921875,21.99999999999957L72.270375,297.00000000000006L72.7916875,297.00000000000006L73.258125,21.99999999999957L73.47762499999999,21.99999999999957L73.7245625,159.49999999999983L73.87546875,21.99999999999957L74.13612499999999,21.99999999999957L74.3281875,297.00000000000006L74.91809375,159.49999999999983L75.21990625000001,159.49999999999983L75.233625,21.99999999999957L75.32965625,21.99999999999957L75.35709375,21.99999999999957L75.453125,159.49999999999983L75.80981249999999,21.99999999999957L76.35856249999999,159.49999999999983L76.39971874999999,21.99999999999957L76.49575,21.99999999999957L76.660375,21.99999999999957L76.825,21.99999999999957L77.00334375,159.49999999999983L77.0170625,21.99999999999957L77.0445,21.99999999999957L77.5658125,21.99999999999957L77.60696875,159.49999999999983L77.63440625,159.49999999999983L77.66184375,21.99999999999957L77.703,297.00000000000006L77.757875,159.49999999999983L77.79903125000001,159.49999999999983L78.0596875,21.99999999999957L78.3615,21.99999999999957L78.43009375,21.99999999999957L79.03371874999999,159.49999999999983L79.32181250000001,159.49999999999983L80.22725,21.99999999999957L80.25468749999999,21.99999999999957L80.51534375,21.99999999999957L80.96806249999999,21.99999999999957L81.09153124999999,21.99999999999957L81.14640625,434.50000000000034L81.22871875,21.99999999999957L81.39334375000001,21.99999999999957L81.4345,159.49999999999983L81.8460625,159.49999999999983L81.96953125,21.99999999999957L82.05184374999999,21.99999999999957L82.477125,159.49999999999983L82.5045625,21.99999999999957L82.62803124999999,297.00000000000006L82.77893750000001,21.99999999999957L82.86125,21.99999999999957L82.95728125000001,21.99999999999957L83.464875,21.99999999999957L83.80784375,21.99999999999957L83.89015625,21.99999999999957L83.97246874999999,159.49999999999983L84.013625,159.49999999999983L84.3154375,21.99999999999957L84.79559375,21.99999999999957L84.9465,21.99999999999957L85.42665625000001,21.99999999999957L85.72846875,21.99999999999957L85.83821875000001,21.99999999999957L86.67506250000001,21.99999999999957L86.81225,21.99999999999957L86.89456249999999,21.99999999999957L87.73140624999999,159.49999999999983L88.38990625,159.49999999999983L88.5408125,159.49999999999983L88.70543749999999,21.99999999999957L89.51484375,21.99999999999957L89.65203125,21.99999999999957L89.70690625,21.99999999999957L90.049875,21.99999999999957L90.10475000000001,21.99999999999957L90.1870625,21.99999999999957L90.66721875,159.49999999999983L90.708375,21.99999999999957L91.21596875,21.99999999999957L91.35315625000001,21.99999999999957L91.7235625,21.99999999999957L91.77843750000001,21.99999999999957L91.805875,21.99999999999957L91.88818749999999,21.99999999999957L92.01165625,21.99999999999957L92.32718750000001,21.99999999999957L92.42321874999999,159.49999999999983L92.72503124999999,21.99999999999957L92.903375,21.99999999999957L92.95824999999999,159.49999999999983L92.97196875,21.99999999999957L93.38353124999999,21.99999999999957L93.69906250000001,21.99999999999957L93.7265,159.49999999999983L93.76765625,21.99999999999957L93.781375,21.99999999999957L93.891125,159.49999999999983L94.41243750000001,21.99999999999957L94.59078125,21.99999999999957L94.7965625,21.99999999999957L95.05721874999999,159.49999999999983L95.208125,21.99999999999957L95.33159375,21.99999999999957L95.756875,159.49999999999983L95.90778125000001,21.99999999999957L96.34678125,21.99999999999957L96.67603125,21.99999999999957L96.9366875,159.49999999999983L97.11503125,297.00000000000006L97.12875,21.99999999999957L97.2385,21.99999999999957L97.26593749999999,21.99999999999957L97.842125,21.99999999999957L97.897,434.50000000000034L97.951875,159.49999999999983L98.10278124999999,159.49999999999983L98.1439375,21.99999999999957L98.15765625,21.99999999999957L98.59665625,21.99999999999957L98.7475625,21.99999999999957L98.77499999999999,21.99999999999957L98.84359375000001,21.99999999999957L99.02193749999999,21.99999999999957L99.11796875,159.49999999999983L99.2963125,21.99999999999957L99.50209374999999,21.99999999999957L99.6255625,21.99999999999957L99.66671875,21.99999999999957L100.07828125,21.99999999999957L100.40753125,21.99999999999957L100.44868749999999,21.99999999999957L100.47612500000001,159.49999999999983L100.531,21.99999999999957L100.6133125,21.99999999999957L100.99743749999999,297.00000000000006L101.1071875,21.99999999999957L101.42271874999999,21.99999999999957L101.55990625,159.49999999999983L102.13609375,21.99999999999957L102.25956249999999,21.99999999999957L102.32815625,159.49999999999983L102.9455,21.99999999999957L103.01409375,21.99999999999957L103.17871875,21.99999999999957L103.80978125,21.99999999999957L105.18165625,21.99999999999957L106.04593750000001,21.99999999999957L106.4300625,159.49999999999983L106.74559375,159.49999999999983L107.44525,21.99999999999957L107.9116875,297.00000000000006L108.09003125000001,21.99999999999957L109.03662499999999,21.99999999999957L109.14637499999999,21.99999999999957L109.256125,21.99999999999957L109.48934375,21.99999999999957L109.70884375,21.99999999999957L109.87346874999999,159.49999999999983L110.36734375,21.99999999999957L110.47709375000001,21.99999999999957L110.82006249999999,159.49999999999983L110.83378124999999,21.99999999999957L111.27278125000001,21.99999999999957L111.30021875,159.49999999999983L111.57459375,21.99999999999957L111.6431875,159.49999999999983L111.67062499999999,159.49999999999983L111.6980625,21.99999999999957L112.05475,21.99999999999957L112.83671875,21.99999999999957L113.08365625,21.99999999999957L113.57753124999999,159.49999999999983L113.60496875,21.99999999999957L113.865625,21.99999999999957L114.304625,159.49999999999983L114.3320625,21.99999999999957L114.6613125,21.99999999999957L114.67503125,21.99999999999957L114.74362500000001,21.99999999999957L114.81221875,21.99999999999957L115.3198125,21.99999999999957L115.56675,21.99999999999957L115.82740625000001,21.99999999999957L116.04690624999999,159.49999999999983L116.23896875000001,21.99999999999957L116.48590625,21.99999999999957L116.5270625,21.99999999999957L116.9935,21.99999999999957L117.03465625,159.49999999999983L117.2404375,21.99999999999957L117.30903124999999,159.49999999999983L117.487375,159.49999999999983L117.55596875,21.99999999999957L117.77546875,21.99999999999957L117.84406249999999,21.99999999999957L117.91265625000001,21.99999999999957L117.96753125,159.49999999999983L118.18703125,21.99999999999957L118.65346875,21.99999999999957L118.98271874999999,21.99999999999957L119.6275,21.99999999999957L119.7646875,159.49999999999983L119.81956249999999,21.99999999999957L120.0390625,21.99999999999957L120.18996875,159.49999999999983L120.51921875,21.99999999999957L120.7524375,159.49999999999983L121.01309375,21.99999999999957L121.3011875,21.99999999999957L121.4109375,21.99999999999957L121.53440625,21.99999999999957L121.75390625,21.99999999999957L122.316375,21.99999999999957L122.35753125000001,21.99999999999957L122.5084375,21.99999999999957L122.60446875000001,21.99999999999957L123.12578124999999,21.99999999999957L123.34528125,21.99999999999957L123.41387499999999,21.99999999999957L123.44131250000001,21.99999999999957L123.7156875,159.49999999999983L123.86659375,21.99999999999957L124.072375,21.99999999999957L124.2095625,21.99999999999957L125.07384375,159.49999999999983L125.11500000000001,21.99999999999957L125.1973125,21.99999999999957L125.718625,21.99999999999957L125.9106875,159.49999999999983L125.938125,21.99999999999957L126.30853125,159.49999999999983L126.55546875,21.99999999999957L126.93959375,159.49999999999983L127.2276875,159.49999999999983L127.694125,21.99999999999957L128.0508125,21.99999999999957L128.1056875,159.49999999999983L128.31146875,21.99999999999957L128.50353125,159.49999999999983L128.75046875,21.99999999999957L129.2855,21.99999999999957L129.43640625,21.99999999999957L129.45012499999999,159.49999999999983L129.83425,159.49999999999983L129.889125,21.99999999999957L129.9165625,159.49999999999983L130.0811875,21.99999999999957L130.4104375,21.99999999999957L130.5750625,21.99999999999957L130.6848125,21.99999999999957L130.767125,21.99999999999957L130.91803125,21.99999999999957L131.02778125,21.99999999999957L131.05521875,21.99999999999957L131.60396875,21.99999999999957L131.7274375,21.99999999999957L131.754875,159.49999999999983L131.79603125,21.99999999999957L132.2213125,159.49999999999983L132.303625,21.99999999999957L132.523125,21.99999999999957L133.44228125,159.49999999999983L133.4834375,21.99999999999957L133.840125,21.99999999999957L133.90871875,21.99999999999957L134.3614375,21.99999999999957L134.37515625,159.49999999999983L134.73184375,21.99999999999957L134.9650625,21.99999999999957L135.0199375,21.99999999999957L135.1296875,21.99999999999957L135.19828125,21.99999999999957L135.21200000000002,159.49999999999983L135.2943125,21.99999999999957L135.56868749999998,21.99999999999957L135.74703125000002,21.99999999999957L135.82934375,159.49999999999983L136.1723125,21.99999999999957L136.21346875,21.99999999999957L136.9954375,21.99999999999957L137.62650000000002,21.99999999999957L137.81856249999998,21.99999999999957L137.9283125,159.49999999999983L138.24384375,21.99999999999957L138.2575625,21.99999999999957L138.5045,21.99999999999957L138.8611875,21.99999999999957L139.16299999999998,21.99999999999957L139.42365625,21.99999999999957L139.437375,21.99999999999957L139.82150000000001,21.99999999999957L140.15075000000002,21.99999999999957L140.32909375,21.99999999999957L140.68578125000002,159.49999999999983L140.98759375,21.99999999999957L141.06990625,21.99999999999957L141.17965625,159.49999999999983L141.24825,159.49999999999983L141.97534374999998,21.99999999999957L142.01649999999998,21.99999999999957L142.16740625,21.99999999999957L142.35946875000002,21.99999999999957L142.63384375,21.99999999999957L142.82590624999997,21.99999999999957L142.89450000000002,434.50000000000034L143.45696875000002,21.99999999999957L143.92340625,21.99999999999957L144.10175,159.49999999999983L144.33496875,21.99999999999957L144.4584375,159.49999999999983L144.705375,21.99999999999957L144.78768749999998,21.99999999999957L144.91115625,21.99999999999957L145.5010625,21.99999999999957L145.66568750000002,159.49999999999983L145.693125,21.99999999999957L145.78915625,21.99999999999957L146.22815625,21.99999999999957L146.28303125,21.99999999999957L146.70831249999998,159.49999999999983L146.790625,21.99999999999957L147.0375625,159.49999999999983L147.119875,159.49999999999983L147.504,21.99999999999957L147.53143749999998,21.99999999999957L147.83325,21.99999999999957L147.8606875,159.49999999999983L147.997875,21.99999999999957L148.14878125,21.99999999999957L148.47803125000002,159.49999999999983L148.61521875,21.99999999999957L149.05421875,21.99999999999957L149.1228125,21.99999999999957L149.21884375,159.49999999999983L149.36975,159.49999999999983L149.45206249999998,21.99999999999957L149.76759374999997,297.00000000000006L149.82246875,21.99999999999957L150.70046875,21.99999999999957L150.7690625,297.00000000000006L150.9885625,21.99999999999957L151.35896875,21.99999999999957L151.57846875,21.99999999999957L151.70193749999999,159.49999999999983L151.8665625,159.49999999999983L152.51134374999998,21.99999999999957L152.56621875000002,159.49999999999983L152.9915,159.49999999999983L153.5128125,159.49999999999983L153.69115625,159.49999999999983L153.814625,21.99999999999957L153.95181250000002,21.99999999999957L154.0066875,159.49999999999983L154.363375,21.99999999999957L154.89840625,159.49999999999983L155.06303125000002,21.99999999999957L155.09046875,159.49999999999983L155.1865,21.99999999999957L155.39228125,21.99999999999957L155.51575,21.99999999999957L155.63921875,21.99999999999957L155.73525,21.99999999999957L155.83128125,297.00000000000006L155.91359375000002,21.99999999999957L155.9273125,21.99999999999957L156.009625,21.99999999999957L156.07821875,21.99999999999957L156.21540625,21.99999999999957L156.64068749999998,21.99999999999957L156.95621874999998,159.49999999999983L156.98365625000002,21.99999999999957L157.162,21.99999999999957L157.3815,21.99999999999957L157.601,21.99999999999957L157.61471875,21.99999999999957L157.6284375,21.99999999999957L158.2869375,297.00000000000006L158.41040625,21.99999999999957L158.533875,21.99999999999957L158.6710625,21.99999999999957L159.04146875,21.99999999999957L159.15121875,21.99999999999957L159.23353125,159.49999999999983L159.41187499999998,21.99999999999957L160.11153125,21.99999999999957L160.12525,159.49999999999983L160.16640625,21.99999999999957L160.39962500000001,21.99999999999957L160.56425000000002,21.99999999999957L160.674,21.99999999999957L161.00325,21.99999999999957L161.0306875,159.49999999999983L161.23646875,21.99999999999957L161.2501875,159.49999999999983L161.497125,21.99999999999957L161.71662500000002,21.99999999999957L162.05959375,21.99999999999957L162.2105,21.99999999999957L162.38884375,21.99999999999957L162.56718750000002,21.99999999999957L162.80040625,159.49999999999983L162.8964375,21.99999999999957L163.1708125,21.99999999999957L163.308,21.99999999999957L163.472625,21.99999999999957L163.48634375,159.49999999999983L163.91162500000002,159.49999999999983L163.92534375,21.99999999999957L163.9390625,21.99999999999957L164.07625,21.99999999999957L164.25459375,21.99999999999957L164.33690625,21.99999999999957L164.44665625000002,159.49999999999983L164.52896875000002,21.99999999999957L165.48928124999998,21.99999999999957L165.8596875,21.99999999999957L166.28496875,21.99999999999957L166.35356249999998,21.99999999999957L166.5181875,159.49999999999983L167.21784375000001,21.99999999999957L167.24528125,21.99999999999957L167.47850000000003,21.99999999999957L167.57453125,159.49999999999983L167.71171875,21.99999999999957L168.31534375,21.99999999999957L168.46625,21.99999999999957L168.68575,21.99999999999957L169.3168125,21.99999999999957L169.35796875,21.99999999999957L169.37168749999998,21.99999999999957L170.04390625000002,159.49999999999983L170.72984375,21.99999999999957L170.81215625000002,21.99999999999957L170.82587500000002,21.99999999999957L170.9081875,21.99999999999957L171.49809375,21.99999999999957L171.7313125,21.99999999999957L172.18403125,21.99999999999957L172.32121874999999,21.99999999999957L172.48584375000002,21.99999999999957L172.59559375,21.99999999999957L172.801375,21.99999999999957L173.0483125,159.49999999999983L173.30896875000002,21.99999999999957L173.44615625,21.99999999999957L173.47359375,21.99999999999957L174.32415625,21.99999999999957L174.46134375,21.99999999999957L174.557375,21.99999999999957L174.62596875,159.49999999999983L174.84546875,21.99999999999957L174.9415,21.99999999999957L175.11984375,21.99999999999957L175.20215624999997,21.99999999999957L176.1761875,159.49999999999983L176.93071875,21.99999999999957L176.98559375,21.99999999999957L178.0145,21.99999999999957L178.6455625,21.99999999999957L178.65928125,21.99999999999957L178.72787499999998,21.99999999999957L178.837625,159.49999999999983L179.08456249999998,159.49999999999983L179.6333125,21.99999999999957L179.96256250000002,21.99999999999957L180.044875,21.99999999999957L180.05859375,21.99999999999957L180.16834375,21.99999999999957L180.52503125,159.49999999999983L180.6759375,21.99999999999957L181.19725,297.00000000000006L181.25212499999998,21.99999999999957L181.3344375,159.49999999999983L181.43046875,21.99999999999957L181.4441875,21.99999999999957L181.6088125,21.99999999999957L181.85574999999997,159.49999999999983L182.239875,159.49999999999983L182.39078124999997,21.99999999999957L182.8709375,21.99999999999957L182.88465625,21.99999999999957L182.99440625000003,159.49999999999983L183.337375,21.99999999999957L183.74893749999998,21.99999999999957L183.886125,21.99999999999957L183.95471874999998,21.99999999999957L184.42115625,21.99999999999957L184.48975,21.99999999999957L184.5171875,21.99999999999957L184.62693750000003,21.99999999999957L184.66809375,159.49999999999983L184.69553125000002,21.99999999999957L185.0659375,21.99999999999957L185.24428125,21.99999999999957L185.5598125,21.99999999999957L185.57353125,21.99999999999957L185.971375,21.99999999999957L186.1634375,21.99999999999957L186.27318749999998,21.99999999999957L186.72590625,159.49999999999983L187.16490625,21.99999999999957L187.892,21.99999999999957L188.12521875,21.99999999999957L188.44074999999998,159.49999999999983L188.6328125,21.99999999999957L188.715125,21.99999999999957L188.83859375,21.99999999999957L189.09925,21.99999999999957L189.1266875,21.99999999999957L189.55196875,21.99999999999957L189.57940624999998,21.99999999999957L189.63428125000002,21.99999999999957L189.812625,159.49999999999983L189.92237500000002,21.99999999999957L189.96353125000002,21.99999999999957L190.01840625,21.99999999999957L190.23790625,21.99999999999957L190.36137499999998,21.99999999999957L190.4436875,21.99999999999957L190.95128125,21.99999999999957L191.019875,297.00000000000006L191.25309374999998,21.99999999999957L191.44515625,21.99999999999957L191.458875,21.99999999999957L191.6509375,21.99999999999957L191.678375,21.99999999999957L191.74696874999998,21.99999999999957L191.99390625,21.99999999999957L192.227125,159.49999999999983L192.43290625,21.99999999999957L192.84446875,21.99999999999957L192.92678125,21.99999999999957L192.995375,21.99999999999957L193.105125,21.99999999999957L193.91453125,21.99999999999957L194.20262499999998,21.99999999999957L194.36725,159.49999999999983L194.46328125,21.99999999999957L194.51815625,297.00000000000006L194.94343750000002,159.49999999999983L195.28640625,21.99999999999957L195.3275625,21.99999999999957L195.43731250000002,21.99999999999957L195.6568125,21.99999999999957L195.78028125,159.49999999999983L196.20556249999998,21.99999999999957L196.23299999999998,21.99999999999957L196.287875,21.99999999999957L196.397625,21.99999999999957L196.41134375,21.99999999999957L196.79546875000003,21.99999999999957L196.9189375,159.49999999999983L196.98753125,21.99999999999957L197.08356250000003,21.99999999999957L197.1384375,21.99999999999957L197.4676875,21.99999999999957L197.5225625,21.99999999999957L197.54999999999998,21.99999999999957L197.83809374999998,21.99999999999957L197.8518125,21.99999999999957L197.86553124999998,21.99999999999957L198.05759375,21.99999999999957L198.13990625,21.99999999999957L198.22221875,21.99999999999957L198.592625,159.49999999999983L198.6200625,21.99999999999957L198.64749999999998,21.99999999999957L199.22368749999998,21.99999999999957L199.6626875,21.99999999999957L200.30746875,21.99999999999957L200.8699375,21.99999999999957L200.95225000000002,21.99999999999957L201.02084375,21.99999999999957L201.37753125,159.49999999999983L201.77537500000003,21.99999999999957L202.03603124999998,159.49999999999983L202.7905625,21.99999999999957L202.91403125000002,21.99999999999957L203.68228125,21.99999999999957L203.8331875,21.99999999999957L204.42309375,21.99999999999957L204.47796875,297.00000000000006L204.7111875,21.99999999999957L205.013,21.99999999999957L205.39712500000002,21.99999999999957L205.452,21.99999999999957L205.4794375,21.99999999999957L205.52059375,21.99999999999957L205.74009375,21.99999999999957L205.91843749999998,21.99999999999957L206.0281875,21.99999999999957L206.1105,21.99999999999957L206.16537499999998,21.99999999999957L206.275125,21.99999999999957L206.28884375,21.99999999999957L206.42603125,21.99999999999957L206.43974999999998,21.99999999999957L206.9885,21.99999999999957L207.04337500000003,21.99999999999957L208.36037499999998,21.99999999999957L208.6621875,159.49999999999983L208.89540624999998,159.49999999999983L208.99143750000002,21.99999999999957L209.11490625,21.99999999999957L209.2109375,21.99999999999957L209.36184375,21.99999999999957L209.82828125,21.99999999999957L209.95175,21.99999999999957L210.56909374999998,21.99999999999957L211.10412499999998,21.99999999999957L211.5156875,21.99999999999957L212.02328125000003,21.99999999999957L212.9424375,21.99999999999957L213.06590624999998,21.99999999999957L213.079625,21.99999999999957L213.3265625,21.99999999999957L213.4363125,159.49999999999983L213.68325000000002,21.99999999999957L213.847875,159.49999999999983L213.90275,21.99999999999957L214.32803125,159.49999999999983L214.5886875,159.49999999999983L214.616125,21.99999999999957L214.6435625,21.99999999999957L214.65728125,21.99999999999957L214.83562500000002,21.99999999999957L215.4118125,159.49999999999983L215.60387500000002,21.99999999999957L215.87825,21.99999999999957L216.19378125,21.99999999999957L216.49559375,21.99999999999957L216.7836875,159.49999999999983L217.18153125,21.99999999999957L217.42846875,21.99999999999957L217.7714375,21.99999999999957L217.9909375,159.49999999999983L218.347625,159.49999999999983L218.53968749999999,21.99999999999957L219.10215625,21.99999999999957L219.225625,21.99999999999957L219.5823125,21.99999999999957L219.98015625,21.99999999999957L220.1310625,21.99999999999957L220.8993125,21.99999999999957L221.05021875,21.99999999999957L221.091375,21.99999999999957L221.24228125,21.99999999999957L221.32459375,159.49999999999983L221.420625,21.99999999999957L221.66756249999997,21.99999999999957L221.92821874999998,297.00000000000006L221.98309375000002,21.99999999999957L222.079125,21.99999999999957L222.1614375,21.99999999999957L222.3260625,21.99999999999957L222.47696875,21.99999999999957L222.55928125,21.99999999999957L222.573,21.99999999999957L223.0394375,21.99999999999957L223.13546875,21.99999999999957L224.17809375000002,21.99999999999957L224.28784375,21.99999999999957L224.3564375,21.99999999999957L224.45246875,159.49999999999983L224.5210625,21.99999999999957L224.53478125,21.99999999999957L224.64453125,21.99999999999957L224.822875,21.99999999999957L224.97378125,21.99999999999957L224.98749999999998,21.99999999999957L225.05609375,21.99999999999957L225.24815625,159.49999999999983L225.35790625,21.99999999999957L225.371625,21.99999999999957L225.48137499999999,21.99999999999957L226.2770625,21.99999999999957L226.3045,159.49999999999983L226.83953125,21.99999999999957L226.85325,21.99999999999957L227.017875,21.99999999999957L227.41571875,21.99999999999957L228.04678125,21.99999999999957L228.34859375000002,21.99999999999957L229.4049375,21.99999999999957L229.597,21.99999999999957L229.72046875,159.49999999999983L229.92624999999998,21.99999999999957L230.15946875,21.99999999999957L230.26921875000002,21.99999999999957L230.6121875,21.99999999999957L230.73565625,21.99999999999957L231.02374999999998,21.99999999999957L231.17465625,21.99999999999957L231.35299999999998,21.99999999999957L231.40787500000002,21.99999999999957L231.83315625,21.99999999999957L231.90175,21.99999999999957L231.98406250000002,21.99999999999957L232.13496874999998,21.99999999999957L232.18984375,21.99999999999957L232.395625,21.99999999999957L232.58768750000002,21.99999999999957L232.98553124999998,21.99999999999957L233.47940624999998,159.49999999999983L234.11046875,21.99999999999957L234.12418749999998,21.99999999999957L234.17906250000001,21.99999999999957L234.5631875,159.49999999999983L234.7278125,21.99999999999957L234.865,297.00000000000006L234.919875,21.99999999999957L235.1119375,21.99999999999957L235.31771875,21.99999999999957L235.63325,159.49999999999983L235.75671874999998,21.99999999999957L235.94878125,21.99999999999957L236.05853125,21.99999999999957L237.5813125,21.99999999999957L237.8008125,21.99999999999957L237.992875,21.99999999999957L238.1849375,159.49999999999983L238.30840625000002,21.99999999999957L238.70625,21.99999999999957L238.84343750000002,21.99999999999957L238.96690625,21.99999999999957L239.18640625,21.99999999999957L239.26871875,21.99999999999957L239.4745,21.99999999999957L239.5568125,21.99999999999957L239.57053125,21.99999999999957L239.94093750000002,21.99999999999957L239.968375,21.99999999999957L240.078125,159.49999999999983L240.47596875,159.49999999999983L241.5871875,21.99999999999957L241.90271875000002,21.99999999999957L241.9713125,21.99999999999957L242.38287499999998,21.99999999999957L242.821875,21.99999999999957L242.9865,21.99999999999957L243.1236875,21.99999999999957L243.49409375,21.99999999999957L243.645,21.99999999999957L243.96053125,21.99999999999957L244.05656249999998,21.99999999999957L244.09771875,21.99999999999957L244.20746875,21.99999999999957L244.2760625,21.99999999999957L244.38581250000001,21.99999999999957L244.46812500000001,159.49999999999983L244.61903124999998,21.99999999999957L245.19521875,21.99999999999957L245.22265625,21.99999999999957L245.85371875,21.99999999999957L245.8674375,21.99999999999957L246.1966875,21.99999999999957L246.4161875,21.99999999999957L246.663125,21.99999999999957L247.11584374999998,21.99999999999957L247.3765,21.99999999999957L247.5136875,159.49999999999983L247.98012500000002,21.99999999999957L248.37796875,21.99999999999957L248.419125,159.49999999999983L248.54259375,21.99999999999957L248.65234375,159.49999999999983L248.99531249999998,159.49999999999983L249.47546875,21.99999999999957L249.48918749999999,21.99999999999957L250.175125,21.99999999999957L250.21628125,159.49999999999983L250.24371875,21.99999999999957L250.32603125,21.99999999999957L251.23146874999998,21.99999999999957L251.65675000000002,21.99999999999957L251.6841875,21.99999999999957L252.31525,21.99999999999957L252.35640625,21.99999999999957L252.57590625,21.99999999999957L252.58962499999998,159.49999999999983L252.6170625,21.99999999999957L252.79540625,21.99999999999957L253.57737500000002,159.49999999999983L253.61853125,21.99999999999957L254.5376875,21.99999999999957L255.20990625000002,21.99999999999957L255.23734375,21.99999999999957L255.37453125,21.99999999999957L255.8546875,21.99999999999957L255.97815624999998,21.99999999999957L256.101625,159.49999999999983L256.96590625,21.99999999999957L257.02078124999997,21.99999999999957L257.81646875,21.99999999999957L258.132,21.99999999999957L258.3789375,21.99999999999957L258.7905,21.99999999999957L258.8179375,21.99999999999957L258.99628125,572.0000000000007" style="fill: none;" fill="none"></path></g></g></g></g></g></g><g transform="translate(55, 176)" clip-path="url(#clip_1)"><clipPath id="clip_1"><rect width="274" height="24"></rect></clipPath><g><g><line x1="0" y1="0" x2="0" y2="5" style="visibility: inherit;" fill="rgb(0, 0, 0)" stroke="rgb(204, 204, 204)" stroke-width="1px"></line><line x1="27.4375" y1="0" x2="27.4375" y2="5" style="visibility: inherit;" fill="rgb(0, 0, 0)" stroke="rgb(204, 204, 204)" stroke-width="1px"></line><line x1="54.875" y1="0" x2="54.875" y2="5" style="visibility: inherit;" fill="rgb(0, 0, 0)" stroke="rgb(204, 204, 204)" stroke-width="1px"></line><line x1="82.3125" y1="0" x2="82.3125" y2="5" style="visibility: inherit;" fill="rgb(0, 0, 0)" stroke="rgb(204, 204, 204)" stroke-width="1px"></line><line x1="109.75" y1="0" x2="109.75" y2="5" style="visibility: inherit;" fill="rgb(0, 0, 0)" stroke="rgb(204, 204, 204)" stroke-width="1px"></line><line x1="137.1875" y1="0" x2="137.1875" y2="5" style="visibility: inherit;" fill="rgb(0, 0, 0)" stroke="rgb(204, 204, 204)" stroke-width="1px"></line><line x1="164.625" y1="0" x2="164.625" y2="5" style="visibility: inherit;" fill="rgb(0, 0, 0)" stroke="rgb(204, 204, 204)" stroke-width="1px"></line><line x1="192.0625" y1="0" x2="192.0625" y2="5" style="visibility: inherit;" fill="rgb(0, 0, 0)" stroke="rgb(204, 204, 204)" stroke-width="1px"></line><line x1="219.5" y1="0" x2="219.5" y2="5" style="visibility: inherit;" fill="rgb(0, 0, 0)" stroke="rgb(204, 204, 204)" stroke-width="1px"></line><line x1="246.9375" y1="0" x2="246.9375" y2="5" style="visibility: inherit;" fill="rgb(0, 0, 0)" stroke="rgb(204, 204, 204)" stroke-width="1px"></line><line x1="274.375" y1="0" x2="274.375" y2="5" style="visibility: inherit;" fill="rgb(0, 0, 0)" stroke="rgb(204, 204, 204)" stroke-width="1px"></line></g><g transform="translate(0, 8)"><text x="0" y="0" dx="0em" dy="0.95em" style="text-anchor: middle; visibility: hidden; font-family: Roboto, sans-serif; font-size: 12px; font-weight: 200;" fill="rgb(255, 255, 255)" stroke="none" stroke-width="1px">-2k</text><text x="27.4375" y="0" dx="0em" dy="0.95em" style="text-anchor: middle; visibility: inherit; font-family: Roboto, sans-serif; font-size: 12px; font-weight: 200;" fill="rgb(255, 255, 255)" stroke="none" stroke-width="1px">0</text><text x="54.875" y="0" dx="0em" dy="0.95em" style="text-anchor: middle; visibility: inherit; font-family: Roboto, sans-serif; font-size: 12px; font-weight: 200;" fill="rgb(255, 255, 255)" stroke="none" stroke-width="1px">2k</text><text x="82.3125" y="0" dx="0em" dy="0.95em" style="text-anchor: middle; visibility: inherit; font-family: Roboto, sans-serif; font-size: 12px; font-weight: 200;" fill="rgb(255, 255, 255)" stroke="none" stroke-width="1px">4k</text><text x="109.75" y="0" dx="0em" dy="0.95em" style="text-anchor: middle; visibility: inherit; font-family: Roboto, sans-serif; font-size: 12px; font-weight: 200;" fill="rgb(255, 255, 255)" stroke="none" stroke-width="1px">6k</text><text x="137.1875" y="0" dx="0em" dy="0.95em" style="text-anchor: middle; visibility: inherit; font-family: Roboto, sans-serif; font-size: 12px; font-weight: 200;" fill="rgb(255, 255, 255)" stroke="none" stroke-width="1px">8k</text><text x="164.625" y="0" dx="0em" dy="0.95em" style="text-anchor: middle; visibility: inherit; font-family: Roboto, sans-serif; font-size: 12px; font-weight: 200;" fill="rgb(255, 255, 255)" stroke="none" stroke-width="1px">10k</text><text x="192.0625" y="0" dx="0em" dy="0.95em" style="text-anchor: middle; visibility: inherit; font-family: Roboto, sans-serif; font-size: 12px; font-weight: 200;" fill="rgb(255, 255, 255)" stroke="none" stroke-width="1px">12k</text><text x="219.5" y="0" dx="0em" dy="0.95em" style="text-anchor: middle; visibility: inherit; font-family: Roboto, sans-serif; font-size: 12px; font-weight: 200;" fill="rgb(255, 255, 255)" stroke="none" stroke-width="1px">14k</text><text x="246.9375" y="0" dx="0em" dy="0.95em" style="text-anchor: middle; visibility: inherit; font-family: Roboto, sans-serif; font-size: 12px; font-weight: 200;" fill="rgb(255, 255, 255)" stroke="none" stroke-width="1px">16k</text><text x="274.375" y="0" dx="0em" dy="0.95em" style="text-anchor: middle; visibility: hidden; font-family: Roboto, sans-serif; font-size: 12px; font-weight: 200;" fill="rgb(255, 255, 255)" stroke="none" stroke-width="1px">18k</text></g><line x1="0" y1="0" x2="274.375" y2="0" fill="rgb(0, 0, 0)" stroke="rgb(204, 204, 204)" stroke-width="1px"></line></g></g></g></g></svg>